# This file uses centimeters as units for non-parametric coordinates.

mtllib Platfor_floor-2lvl.mtl
g default
v 12.596012 0.000000 12.500000
v 64.123103 29.749179 12.500000
v 11.596013 1.732050 12.500000
v 63.123104 31.481229 12.500000
v 11.596013 1.732050 -12.500000
v 63.123104 31.481229 -12.500000
v 12.596012 0.000000 -12.500000
v 64.123103 29.749179 -12.500000
v -15.893493 -0.000000 -12.500000
v -15.893493 -0.000000 12.500000
v -11.596013 1.732054 12.500000
v -11.596013 1.732054 -12.500000
vt 0.375000 0.000000
vt 0.625000 0.000000
vt 0.375000 0.250000
vt 0.625000 0.250000
vt 0.375000 0.500000
vt 0.625000 0.500000
vt 0.375000 0.750000
vt 0.625000 0.750000
vt 0.375000 1.000000
vt 0.625000 1.000000
vt 0.125000 0.000000
vt 0.125000 0.250000
vt 0.125000 0.000000
vt 0.375000 0.000000
vt 0.375000 0.250000
vt 0.125000 0.250000
vn 0.000000 0.000000 1.000000
vn 0.000000 0.000000 1.000000
vn 0.000000 0.000000 1.000000
vn 0.000000 0.000000 1.000000
vn -0.500000 0.866025 0.000000
vn -0.500000 0.866025 0.000000
vn -0.500000 0.866025 0.000000
vn -0.500000 0.866025 0.000000
vn 0.000000 0.000000 -1.000000
vn 0.000000 0.000000 -1.000000
vn 0.000000 0.000000 -1.000000
vn 0.000000 0.000000 -1.000000
vn 0.500000 -0.866025 0.000000
vn 0.500000 -0.866025 0.000000
vn 0.500000 -0.866025 0.000000
vn 0.500000 -0.866025 0.000000
vn -0.373820 0.927501 0.000000
vn -0.373820 0.927501 0.000000
vn -0.373820 0.927501 0.000000
vn -0.373820 0.927501 0.000000
vn 0.000000 0.000000 1.000000
vn 0.000000 0.000000 1.000000
vn 0.000000 0.000000 1.000000
vn 0.000000 0.000000 1.000000
vn 0.000000 1.000000 0.000000
vn 0.000000 1.000000 0.000000
vn 0.000000 1.000000 0.000000
vn 0.000000 1.000000 0.000000
vn 0.000000 0.000000 -1.000000
vn 0.000000 0.000000 -1.000000
vn 0.000000 0.000000 -1.000000
vn 0.000000 0.000000 -1.000000
s off
g pCube17
usemtl initialShadingGroup
f 1/1/1 2/2/2 4/4/3 3/3/4
f 3/3/5 4/4/6 6/6/7 5/5/8
f 5/5/9 6/6/10 8/8/11 7/7/12
f 7/7/13 8/8/14 2/10/15 1/9/16
f 9/13/17 10/14/18 11/15/19 12/16/20
f 1/1/21 3/3/22 11/15/23 10/14/24
f 3/3/25 5/12/26 12/16/27 11/15/28
f 5/12/29 7/11/30 9/13/31 12/16/32
