# This file uses centimeters as units for non-parametric coordinates.

mtllib Platfor_2lvl.mtl
g default
v 11.422816 1.307915 -11.500000
v 12.188861 1.950703 -11.500000
v -12.383023 29.678605 -11.500000
v -11.616979 30.321393 -11.500000
v -12.383023 29.678605 -12.500000
v -11.616979 30.321393 -12.500000
v 11.422816 1.307915 -12.500000
v 12.188861 1.950703 -12.500000
v -12.188861 1.950703 -11.500000
v -11.422816 1.307915 -11.500000
v 11.616979 30.321393 -11.500000
v 12.383023 29.678605 -11.500000
v 11.616979 30.321393 -12.500000
v 12.383023 29.678605 -12.500000
v -12.188861 1.950703 -12.500000
v -11.422816 1.307915 -12.500000
v -12.500000 29.500000 12.500000
v 12.500000 29.500000 12.500000
v -12.500000 31.500000 12.500000
v 12.500000 31.500000 12.500000
v -12.500000 31.500000 -12.500000
v 12.500000 31.500000 -12.500000
v -12.500000 29.500000 -12.500000
v 12.500000 29.500000 -12.500000
v 11.422816 1.307915 12.500000
v 12.188861 1.950703 12.500000
v -12.383023 29.678605 12.500000
v -11.616979 30.321393 12.500000
v -12.383023 29.678605 11.500000
v -11.616979 30.321393 11.500000
v 11.422816 1.307915 11.500000
v 12.188861 1.950703 11.500000
v -12.188861 1.950703 12.500000
v -11.422816 1.307915 12.500000
v 11.616979 30.321393 12.500000
v 12.383023 29.678605 12.500000
v 11.616979 30.321393 11.500000
v 12.383023 29.678605 11.500000
v -12.188861 1.950703 11.500000
v -11.422816 1.307915 11.500000
v -11.500000 1.307915 -11.422816
v -11.500000 1.950703 -12.188861
v -11.500000 29.678605 12.383023
v -11.500000 30.321393 11.616979
v -12.500000 29.678605 12.383023
v -12.500000 30.321393 11.616979
v -12.500000 1.307915 -11.422816
v -12.500000 1.950703 -12.188861
v -11.500000 1.950703 12.188861
v -11.500000 1.307915 11.422816
v -11.500000 30.321393 -11.616979
v -11.500000 29.678605 -12.383023
v -12.500000 30.321393 -11.616979
v -12.500000 29.678605 -12.383023
v -12.500000 1.950703 12.188861
v -12.500000 1.307915 11.422816
v 12.500000 1.307915 -11.422816
v 12.500000 1.950703 -12.188861
v 12.500000 29.678605 12.383023
v 12.500000 30.321393 11.616979
v 11.500000 29.678605 12.383023
v 11.500000 30.321393 11.616979
v 11.500000 1.307915 -11.422816
v 11.500000 1.950703 -12.188861
v 12.500000 1.950703 12.188861
v 12.500000 1.307915 11.422816
v 12.500000 30.321393 -11.616979
v 12.500000 29.678605 -12.383023
v 11.500000 30.321393 -11.616979
v 11.500000 29.678605 -12.383023
v 11.500000 1.950703 12.188861
v 11.500000 1.307915 11.422816
v 11.500000 0.000000 12.500000
v 12.500000 0.000000 12.500000
v 11.500000 30.000000 12.500000
v 12.500000 30.000000 12.500000
v 11.500000 30.000000 11.500000
v 12.500000 30.000000 11.500000
v 11.500000 0.000000 11.500000
v 12.500000 0.000000 11.500000
v -12.500000 0.000000 12.500000
v -11.500000 0.000000 12.500000
v -12.500000 30.000000 12.500000
v -11.500000 30.000000 12.500000
v -12.500000 30.000000 11.500000
v -11.500000 30.000000 11.500000
v -12.500000 0.000000 11.500000
v -11.500000 0.000000 11.500000
v -12.500000 0.000000 -11.500000
v -11.500000 0.000000 -11.500000
v -12.500000 30.000000 -11.500000
v -11.500000 30.000000 -11.500000
v -12.500000 30.000000 -12.500000
v -11.500000 30.000000 -12.500000
v -12.500000 0.000000 -12.500000
v -11.500000 0.000000 -12.500000
v 11.500000 0.000000 -11.500000
v 12.500000 0.000000 -11.500000
v 11.500000 30.000000 -11.500000
v 12.500000 30.000000 -11.500000
v 11.500000 30.000000 -12.500000
v 12.500000 30.000000 -12.500000
v 11.500000 0.000000 -12.500000
v 12.500000 0.000000 -12.500000
vt 0.375000 0.000000
vt 0.625000 0.000000
vt 0.375000 0.250000
vt 0.625000 0.250000
vt 0.375000 0.500000
vt 0.625000 0.500000
vt 0.375000 0.750000
vt 0.625000 0.750000
vt 0.875000 0.000000
vt 0.875000 0.250000
vt 0.125000 0.000000
vt 0.125000 0.250000
vt 0.375000 0.000000
vt 0.625000 0.000000
vt 0.625000 0.250000
vt 0.375000 0.250000
vt 0.375000 0.500000
vt 0.625000 0.500000
vt 0.625000 0.750000
vt 0.375000 0.750000
vt 0.875000 0.000000
vt 0.875000 0.250000
vt 0.125000 0.000000
vt 0.125000 0.250000
vt 0.375000 0.000000
vt 0.625000 0.000000
vt 0.625000 0.250000
vt 0.375000 0.250000
vt 0.625000 0.500000
vt 0.375000 0.500000
vt 0.625000 0.750000
vt 0.375000 0.750000
vt 0.625000 1.000000
vt 0.375000 1.000000
vt 0.875000 0.000000
vt 0.875000 0.250000
vt 0.125000 0.000000
vt 0.125000 0.250000
vt 0.375000 0.000000
vt 0.625000 0.000000
vt 0.625000 0.250000
vt 0.375000 0.250000
vt 0.375000 0.500000
vt 0.625000 0.500000
vt 0.625000 0.750000
vt 0.375000 0.750000
vt 0.875000 0.000000
vt 0.875000 0.250000
vt 0.125000 0.000000
vt 0.125000 0.250000
vt 0.375000 0.000000
vt 0.625000 0.000000
vt 0.625000 0.250000
vt 0.375000 0.250000
vt 0.375000 0.500000
vt 0.625000 0.500000
vt 0.625000 0.750000
vt 0.375000 0.750000
vt 0.875000 0.000000
vt 0.875000 0.250000
vt 0.125000 0.000000
vt 0.125000 0.250000
vt 0.375000 0.000000
vt 0.625000 0.000000
vt 0.625000 0.250000
vt 0.375000 0.250000
vt 0.375000 0.500000
vt 0.625000 0.500000
vt 0.625000 0.750000
vt 0.375000 0.750000
vt 0.875000 0.000000
vt 0.875000 0.250000
vt 0.125000 0.000000
vt 0.125000 0.250000
vt 0.375000 0.000000
vt 0.625000 0.000000
vt 0.625000 0.250000
vt 0.375000 0.250000
vt 0.375000 0.500000
vt 0.625000 0.500000
vt 0.625000 0.750000
vt 0.375000 0.750000
vt 0.875000 0.000000
vt 0.875000 0.250000
vt 0.125000 0.000000
vt 0.125000 0.250000
vt 0.375000 0.000000
vt 0.625000 0.000000
vt 0.625000 0.250000
vt 0.375000 0.250000
vt 0.375000 0.500000
vt 0.625000 0.500000
vt 0.625000 0.750000
vt 0.375000 0.750000
vt 0.875000 0.000000
vt 0.875000 0.250000
vt 0.125000 0.000000
vt 0.125000 0.250000
vt 0.375000 0.000000
vt 0.625000 0.000000
vt 0.625000 0.250000
vt 0.375000 0.250000
vt 0.375000 0.500000
vt 0.625000 0.500000
vt 0.625000 0.750000
vt 0.375000 0.750000
vt 0.875000 0.000000
vt 0.875000 0.250000
vt 0.125000 0.000000
vt 0.125000 0.250000
vt 0.375000 0.000000
vt 0.625000 0.000000
vt 0.625000 0.250000
vt 0.375000 0.250000
vt 0.375000 0.500000
vt 0.625000 0.500000
vt 0.625000 0.750000
vt 0.375000 0.750000
vt 0.875000 0.000000
vt 0.875000 0.250000
vt 0.125000 0.000000
vt 0.125000 0.250000
vt 0.375000 0.000000
vt 0.625000 0.000000
vt 0.625000 0.250000
vt 0.375000 0.250000
vt 0.375000 0.500000
vt 0.625000 0.500000
vt 0.625000 0.750000
vt 0.375000 0.750000
vt 0.875000 0.000000
vt 0.875000 0.250000
vt 0.125000 0.000000
vt 0.125000 0.250000
vt 0.375000 0.000000
vt 0.625000 0.000000
vt 0.625000 0.250000
vt 0.375000 0.250000
vt 0.375000 0.500000
vt 0.625000 0.500000
vt 0.625000 0.750000
vt 0.375000 0.750000
vt 0.875000 0.000000
vt 0.875000 0.250000
vt 0.125000 0.000000
vt 0.125000 0.250000
vt 0.375000 0.000000
vt 0.625000 0.000000
vt 0.625000 0.250000
vt 0.375000 0.250000
vt 0.375000 0.500000
vt 0.625000 0.500000
vt 0.625000 0.750000
vt 0.375000 0.750000
vt 0.875000 0.000000
vt 0.875000 0.250000
vt 0.125000 0.000000
vt 0.125000 0.250000
vn 0.000000 0.000000 1.000000
vn 0.000000 0.000000 1.000000
vn 0.000000 0.000000 1.000000
vn 0.000000 0.000000 1.000000
vn 0.000000 0.000000 -1.000000
vn 0.000000 0.000000 -1.000000
vn 0.000000 0.000000 -1.000000
vn 0.000000 0.000000 -1.000000
vn 0.766044 0.642788 0.000000
vn 0.766044 0.642788 0.000000
vn 0.766044 0.642788 0.000000
vn 0.766044 0.642788 0.000000
vn -0.766044 -0.642788 0.000000
vn -0.766044 -0.642788 0.000000
vn -0.766044 -0.642788 0.000000
vn -0.766044 -0.642788 0.000000
vn 0.000000 0.000000 1.000000
vn 0.000000 0.000000 1.000000
vn 0.000000 0.000000 1.000000
vn 0.000000 0.000000 1.000000
vn 0.000000 0.000000 -1.000000
vn 0.000000 0.000000 -1.000000
vn 0.000000 0.000000 -1.000000
vn 0.000000 0.000000 -1.000000
vn 0.766044 -0.642788 0.000000
vn 0.766044 -0.642788 0.000000
vn 0.766044 -0.642788 0.000000
vn 0.766044 -0.642788 0.000000
vn -0.766044 0.642788 0.000000
vn -0.766044 0.642788 0.000000
vn -0.766044 0.642788 0.000000
vn -0.766044 0.642788 0.000000
vn 0.000000 0.000000 1.000000
vn 0.000000 0.000000 1.000000
vn 0.000000 0.000000 1.000000
vn 0.000000 0.000000 1.000000
vn 0.000000 1.000000 0.000000
vn 0.000000 1.000000 0.000000
vn 0.000000 1.000000 0.000000
vn 0.000000 1.000000 0.000000
vn 0.000000 0.000000 -1.000000
vn 0.000000 0.000000 -1.000000
vn 0.000000 0.000000 -1.000000
vn 0.000000 0.000000 -1.000000
vn 0.000000 -1.000000 0.000000
vn 0.000000 -1.000000 0.000000
vn 0.000000 -1.000000 0.000000
vn 0.000000 -1.000000 0.000000
vn 1.000000 0.000000 0.000000
vn 1.000000 0.000000 0.000000
vn 1.000000 0.000000 0.000000
vn 1.000000 0.000000 0.000000
vn -1.000000 0.000000 0.000000
vn -1.000000 0.000000 0.000000
vn -1.000000 0.000000 0.000000
vn -1.000000 0.000000 0.000000
vn 0.000000 0.000000 1.000000
vn 0.000000 0.000000 1.000000
vn 0.000000 0.000000 1.000000
vn 0.000000 0.000000 1.000000
vn 0.000000 0.000000 -1.000000
vn 0.000000 0.000000 -1.000000
vn 0.000000 0.000000 -1.000000
vn 0.000000 0.000000 -1.000000
vn 0.766044 0.642788 0.000000
vn 0.766044 0.642788 0.000000
vn 0.766044 0.642788 0.000000
vn 0.766044 0.642788 0.000000
vn -0.766044 -0.642788 0.000000
vn -0.766044 -0.642788 0.000000
vn -0.766044 -0.642788 0.000000
vn -0.766044 -0.642788 0.000000
vn 0.000000 0.000000 1.000000
vn 0.000000 0.000000 1.000000
vn 0.000000 0.000000 1.000000
vn 0.000000 0.000000 1.000000
vn 0.000000 0.000000 -1.000000
vn 0.000000 0.000000 -1.000000
vn 0.000000 0.000000 -1.000000
vn 0.000000 0.000000 -1.000000
vn 0.766044 -0.642788 0.000000
vn 0.766044 -0.642788 0.000000
vn 0.766044 -0.642788 0.000000
vn 0.766044 -0.642788 0.000000
vn -0.766044 0.642788 0.000000
vn -0.766044 0.642788 0.000000
vn -0.766044 0.642788 0.000000
vn -0.766044 0.642788 0.000000
vn 1.000000 0.000000 0.000000
vn 1.000000 0.000000 0.000000
vn 1.000000 0.000000 0.000000
vn 1.000000 0.000000 0.000000
vn -1.000000 0.000000 0.000000
vn -1.000000 0.000000 0.000000
vn -1.000000 0.000000 0.000000
vn -1.000000 0.000000 0.000000
vn 0.000000 0.642788 -0.766044
vn 0.000000 0.642788 -0.766044
vn 0.000000 0.642788 -0.766044
vn 0.000000 0.642788 -0.766044
vn 0.000000 -0.642788 0.766044
vn 0.000000 -0.642788 0.766044
vn 0.000000 -0.642788 0.766044
vn 0.000000 -0.642788 0.766044
vn 1.000000 0.000000 0.000000
vn 1.000000 0.000000 0.000000
vn 1.000000 0.000000 0.000000
vn 1.000000 0.000000 0.000000
vn -1.000000 0.000000 0.000000
vn -1.000000 0.000000 0.000000
vn -1.000000 0.000000 0.000000
vn -1.000000 0.000000 0.000000
vn 0.000000 -0.642788 -0.766044
vn 0.000000 -0.642788 -0.766044
vn 0.000000 -0.642788 -0.766044
vn 0.000000 -0.642788 -0.766044
vn 0.000000 0.642788 0.766044
vn 0.000000 0.642788 0.766044
vn 0.000000 0.642788 0.766044
vn 0.000000 0.642788 0.766044
vn 1.000000 0.000000 0.000000
vn 1.000000 0.000000 0.000000
vn 1.000000 0.000000 0.000000
vn 1.000000 0.000000 0.000000
vn -1.000000 0.000000 0.000000
vn -1.000000 0.000000 0.000000
vn -1.000000 0.000000 0.000000
vn -1.000000 0.000000 0.000000
vn 0.000000 0.642788 -0.766044
vn 0.000000 0.642788 -0.766044
vn 0.000000 0.642788 -0.766044
vn 0.000000 0.642788 -0.766044
vn 0.000000 -0.642788 0.766044
vn 0.000000 -0.642788 0.766044
vn 0.000000 -0.642788 0.766044
vn 0.000000 -0.642788 0.766044
vn 1.000000 0.000000 0.000000
vn 1.000000 0.000000 0.000000
vn 1.000000 0.000000 0.000000
vn 1.000000 0.000000 0.000000
vn -1.000000 0.000000 0.000000
vn -1.000000 0.000000 0.000000
vn -1.000000 0.000000 0.000000
vn -1.000000 0.000000 0.000000
vn 0.000000 -0.642788 -0.766044
vn 0.000000 -0.642788 -0.766044
vn 0.000000 -0.642788 -0.766044
vn 0.000000 -0.642788 -0.766044
vn 0.000000 0.642788 0.766044
vn 0.000000 0.642788 0.766044
vn 0.000000 0.642788 0.766044
vn 0.000000 0.642788 0.766044
vn 0.000000 0.000000 1.000000
vn 0.000000 0.000000 1.000000
vn 0.000000 0.000000 1.000000
vn 0.000000 0.000000 1.000000
vn 0.000000 0.000000 -1.000000
vn 0.000000 0.000000 -1.000000
vn 0.000000 0.000000 -1.000000
vn 0.000000 0.000000 -1.000000
vn 1.000000 0.000000 0.000000
vn 1.000000 0.000000 0.000000
vn 1.000000 0.000000 0.000000
vn 1.000000 0.000000 0.000000
vn -1.000000 0.000000 0.000000
vn -1.000000 0.000000 0.000000
vn -1.000000 0.000000 0.000000
vn -1.000000 0.000000 0.000000
vn 0.000000 0.000000 1.000000
vn 0.000000 0.000000 1.000000
vn 0.000000 0.000000 1.000000
vn 0.000000 0.000000 1.000000
vn 0.000000 0.000000 -1.000000
vn 0.000000 0.000000 -1.000000
vn 0.000000 0.000000 -1.000000
vn 0.000000 0.000000 -1.000000
vn 1.000000 0.000000 0.000000
vn 1.000000 0.000000 0.000000
vn 1.000000 0.000000 0.000000
vn 1.000000 0.000000 0.000000
vn -1.000000 0.000000 0.000000
vn -1.000000 0.000000 0.000000
vn -1.000000 0.000000 0.000000
vn -1.000000 0.000000 0.000000
vn 0.000000 0.000000 1.000000
vn 0.000000 0.000000 1.000000
vn 0.000000 0.000000 1.000000
vn 0.000000 0.000000 1.000000
vn 0.000000 0.000000 -1.000000
vn 0.000000 0.000000 -1.000000
vn 0.000000 0.000000 -1.000000
vn 0.000000 0.000000 -1.000000
vn 1.000000 0.000000 0.000000
vn 1.000000 0.000000 0.000000
vn 1.000000 0.000000 0.000000
vn 1.000000 0.000000 0.000000
vn -1.000000 0.000000 0.000000
vn -1.000000 0.000000 0.000000
vn -1.000000 0.000000 0.000000
vn -1.000000 0.000000 0.000000
vn 0.000000 0.000000 1.000000
vn 0.000000 0.000000 1.000000
vn 0.000000 0.000000 1.000000
vn 0.000000 0.000000 1.000000
vn 0.000000 0.000000 -1.000000
vn 0.000000 0.000000 -1.000000
vn 0.000000 0.000000 -1.000000
vn 0.000000 0.000000 -1.000000
vn 1.000000 0.000000 0.000000
vn 1.000000 0.000000 0.000000
vn 1.000000 0.000000 0.000000
vn 1.000000 0.000000 0.000000
vn -1.000000 0.000000 0.000000
vn -1.000000 0.000000 0.000000
vn -1.000000 0.000000 0.000000
vn -1.000000 0.000000 0.000000
s off
g pCube19
usemtl initialShadingGroup
f 1/1/1 2/2/2 4/4/3 3/3/4
f 5/5/5 6/6/6 8/8/7 7/7/8
f 2/2/9 8/9/10 6/10/11 4/4/12
f 7/11/13 1/1/14 3/3/15 5/12/16
f 9/13/17 10/14/18 12/15/19 11/16/20
f 13/17/21 14/18/22 16/19/23 15/20/24
f 10/14/25 16/21/26 14/22/27 12/15/28
f 15/23/29 9/13/30 11/16/31 13/24/32
f 17/25/33 18/26/34 20/27/35 19/28/36
f 19/28/37 20/27/38 22/29/39 21/30/40
f 21/30/41 22/29/42 24/31/43 23/32/44
f 23/32/45 24/31/46 18/33/47 17/34/48
f 18/26/49 24/35/50 22/36/51 20/27/52
f 23/37/53 17/25/54 19/28/55 21/38/56
f 25/39/57 26/40/58 28/41/59 27/42/60
f 29/43/61 30/44/62 32/45/63 31/46/64
f 26/40/65 32/47/66 30/48/67 28/41/68
f 31/49/69 25/39/70 27/42/71 29/50/72
f 33/51/73 34/52/74 36/53/75 35/54/76
f 37/55/77 38/56/78 40/57/79 39/58/80
f 34/52/81 40/59/82 38/60/83 36/53/84
f 39/61/85 33/51/86 35/54/87 37/62/88
f 41/63/89 42/64/90 44/65/91 43/66/92
f 45/67/93 46/68/94 48/69/95 47/70/96
f 42/64/97 48/71/98 46/72/99 44/65/100
f 47/73/101 41/63/102 43/66/103 45/74/104
f 49/75/105 50/76/106 52/77/107 51/78/108
f 53/79/109 54/80/110 56/81/111 55/82/112
f 50/76/113 56/83/114 54/84/115 52/77/116
f 55/85/117 49/75/118 51/78/119 53/86/120
f 57/87/121 58/88/122 60/89/123 59/90/124
f 61/91/125 62/92/126 64/93/127 63/94/128
f 58/88/129 64/95/130 62/96/131 60/89/132
f 63/97/133 57/87/134 59/90/135 61/98/136
f 65/99/137 66/100/138 68/101/139 67/102/140
f 69/103/141 70/104/142 72/105/143 71/106/144
f 66/100/145 72/107/146 70/108/147 68/101/148
f 71/109/149 65/99/150 67/102/151 69/110/152
f 73/111/153 74/112/154 76/113/155 75/114/156
f 77/115/157 78/116/158 80/117/159 79/118/160
f 74/112/161 80/119/162 78/120/163 76/113/164
f 79/121/165 73/111/166 75/114/167 77/122/168
f 81/123/169 82/124/170 84/125/171 83/126/172
f 85/127/173 86/128/174 88/129/175 87/130/176
f 82/124/177 88/131/178 86/132/179 84/125/180
f 87/133/181 81/123/182 83/126/183 85/134/184
f 89/135/185 90/136/186 92/137/187 91/138/188
f 93/139/189 94/140/190 96/141/191 95/142/192
f 90/136/193 96/143/194 94/144/195 92/137/196
f 95/145/197 89/135/198 91/138/199 93/146/200
f 97/147/201 98/148/202 100/149/203 99/150/204
f 101/151/205 102/152/206 104/153/207 103/154/208
f 98/148/209 104/155/210 102/156/211 100/149/212
f 103/157/213 97/147/214 99/150/215 101/158/216
