# This file uses centimeters as units for non-parametric coordinates.

mtllib Rock5.mtl
g default
v 6.866861 -1.642475 -3.168756
v 4.248470 -1.645740 -7.335564
v -4.998894 -2.379761 -8.690243
v -8.766941 -2.379762 -3.990142
v -6.639454 -2.222141 3.146254
v -2.441325 -2.138923 7.936837
v 3.186475 -1.745757 5.667605
v 6.330298 -1.642960 1.954044
v 6.418453 -1.028401 -8.300639
v 1.240894 -1.651821 -11.437427
v -7.473229 -2.439316 -10.080034
v -12.287032 -1.763525 -2.371282
v -9.481240 -1.254530 8.831545
v -3.426739 -2.098503 12.054014
v 6.625011 -1.603238 7.674801
v 7.778707 -1.019453 0.386774
v 8.800697 0.926481 -10.771692
v 0.077646 -1.197201 -13.975372
v -9.477530 -2.442465 -11.427586
v -17.987238 0.849111 -3.297660
v -13.459464 1.321627 9.055833
v -3.877572 -1.299365 17.375039
v 8.997234 -1.227832 11.372809
v 10.403219 -0.693068 0.000000
v 10.049934 4.186882 -9.431692
v 0.166762 0.259515 -17.535383
v -9.344504 1.177376 -16.146062
v -17.612889 1.853602 -3.689981
v -12.514626 4.817506 8.507386
v -3.877572 0.527591 17.696150
v 8.920284 0.968048 14.425624
v 11.954465 0.953598 2.067332
v 14.775654 12.138085 -7.294857
v -0.968588 1.376092 -20.019903
v -10.821730 1.783715 -16.184885
v -17.072548 5.088757 -3.595320
v -11.361049 5.577552 7.619883
v -2.783324 1.882176 16.441030
v 8.189345 2.253003 13.538120
v 12.345383 3.177793 2.520994
v 10.789626 14.661097 -7.178911
v 0.000000 4.681713 -15.177837
v -7.771605 3.704268 -12.215209
v -13.586258 7.668976 -5.416499
v -6.789917 5.691322 5.344319
v -0.006232 3.609636 15.586678
v 6.915697 5.222713 11.730546
v 15.125144 13.923226 0.000000
v 7.805851 14.277681 -6.924170
v 0.358735 7.435445 -8.456113
v -6.098244 6.121464 -9.006135
v -7.881935 7.129870 -3.914700
v -3.674677 5.687104 4.060315
v 0.000000 5.504844 9.472634
v 3.674677 7.423188 5.615482
v 9.944658 13.986170 -1.324282
v -4.204236 -2.217763 -3.754219
v -0.229615 6.539620 -0.669583
vt 0.000000 0.125000
vt 0.125000 0.125000
vt 0.250000 0.125000
vt 0.375000 0.125000
vt 0.500000 0.125000
vt 0.625000 0.125000
vt 0.750000 0.125000
vt 0.875000 0.125000
vt 1.000000 0.125000
vt 0.000000 0.250000
vt 0.125000 0.250000
vt 0.250000 0.250000
vt 0.375000 0.250000
vt 0.500000 0.250000
vt 0.625000 0.250000
vt 0.750000 0.250000
vt 0.875000 0.250000
vt 1.000000 0.250000
vt 0.000000 0.375000
vt 0.125000 0.375000
vt 0.250000 0.375000
vt 0.375000 0.375000
vt 0.500000 0.375000
vt 0.625000 0.375000
vt 0.750000 0.375000
vt 0.875000 0.375000
vt 1.000000 0.375000
vt 0.000000 0.500000
vt 0.125000 0.500000
vt 0.250000 0.500000
vt 0.375000 0.500000
vt 0.500000 0.500000
vt 0.625000 0.500000
vt 0.750000 0.500000
vt 0.875000 0.500000
vt 1.000000 0.500000
vt 0.000000 0.625000
vt 0.125000 0.625000
vt 0.250000 0.625000
vt 0.375000 0.625000
vt 0.500000 0.625000
vt 0.625000 0.625000
vt 0.750000 0.625000
vt 0.875000 0.625000
vt 1.000000 0.625000
vt 0.000000 0.750000
vt 0.125000 0.750000
vt 0.250000 0.750000
vt 0.375000 0.750000
vt 0.500000 0.750000
vt 0.625000 0.750000
vt 0.750000 0.750000
vt 0.875000 0.750000
vt 1.000000 0.750000
vt 0.000000 0.875000
vt 0.125000 0.875000
vt 0.250000 0.875000
vt 0.375000 0.875000
vt 0.500000 0.875000
vt 0.625000 0.875000
vt 0.750000 0.875000
vt 0.875000 0.875000
vt 1.000000 0.875000
vt 0.062500 0.000000
vt 0.187500 0.000000
vt 0.312500 0.000000
vt 0.437500 0.000000
vt 0.562500 0.000000
vt 0.687500 0.000000
vt 0.812500 0.000000
vt 0.937500 0.000000
vt 0.062500 1.000000
vt 0.187500 1.000000
vt 0.312500 1.000000
vt 0.437500 1.000000
vt 0.562500 1.000000
vt 0.687500 1.000000
vt 0.812500 1.000000
vt 0.937500 1.000000
vn 0.211541 -0.966875 -0.142839
vn 0.211541 -0.966875 -0.142839
vn 0.211541 -0.966875 -0.142839
vn 0.211541 -0.966875 -0.142839
vn 0.084177 -0.993835 -0.072149
vn 0.084177 -0.993835 -0.072149
vn 0.084177 -0.993835 -0.072149
vn 0.084177 -0.993835 -0.072149
vn -0.092842 -0.995631 -0.009987
vn -0.092842 -0.995631 -0.009987
vn -0.092842 -0.995631 -0.009987
vn -0.092842 -0.995631 -0.009987
vn -0.155907 -0.984708 0.077733
vn -0.155907 -0.984709 0.077733
vn -0.155907 -0.984709 0.077733
vn -0.155907 -0.984708 0.077733
vn -0.117426 -0.991495 0.056113
vn -0.117426 -0.991495 0.056113
vn -0.117426 -0.991495 0.056113
vn -0.117426 -0.991495 0.056113
vn 0.059157 -0.998230 0.006122
vn 0.059157 -0.998230 0.006122
vn 0.059157 -0.998230 0.006122
vn 0.059157 -0.998230 0.006122
vn 0.154957 -0.987921 -0.001123
vn 0.154957 -0.987921 -0.001123
vn 0.154957 -0.987921 -0.001123
vn 0.154957 -0.987921 -0.001123
vn 0.663148 -0.747466 -0.039095
vn 0.663149 -0.747466 -0.039095
vn 0.663148 -0.747466 -0.039095
vn 0.663148 -0.747466 -0.039095
vn 0.330143 -0.879512 -0.342732
vn 0.330143 -0.879512 -0.342732
vn 0.330143 -0.879512 -0.342732
vn 0.330143 -0.879512 -0.342732
vn 0.072297 -0.982253 -0.173070
vn 0.072297 -0.982253 -0.173070
vn 0.072297 -0.982253 -0.173070
vn 0.072297 -0.982253 -0.173070
vn -0.313746 -0.949146 -0.026176
vn -0.313746 -0.949146 -0.026176
vn -0.313746 -0.949146 -0.026176
vn -0.313746 -0.949146 -0.026176
vn -0.474777 -0.860728 0.183671
vn -0.474777 -0.860728 0.183671
vn -0.474777 -0.860728 0.183671
vn -0.474776 -0.860728 0.183671
vn -0.377214 -0.893753 0.242724
vn -0.377214 -0.893753 0.242724
vn -0.377214 -0.893753 0.242724
vn -0.377214 -0.893753 0.242724
vn 0.075621 -0.990723 0.112911
vn 0.075621 -0.990723 0.112911
vn 0.075621 -0.990723 0.112911
vn 0.075621 -0.990723 0.112911
vn 0.162841 -0.985967 -0.036763
vn 0.162841 -0.985967 -0.036763
vn 0.162841 -0.985967 -0.036763
vn 0.162841 -0.985967 -0.036763
vn 0.348749 -0.928167 -0.129922
vn 0.348749 -0.928167 -0.129922
vn 0.348749 -0.928167 -0.129922
vn 0.348749 -0.928167 -0.129922
vn 0.564504 -0.477152 -0.673544
vn 0.564504 -0.477152 -0.673544
vn 0.564504 -0.477152 -0.673544
vn 0.564504 -0.477152 -0.673544
vn -0.093296 -0.847644 -0.522298
vn -0.093296 -0.847644 -0.522298
vn -0.093296 -0.847644 -0.522298
vn -0.093296 -0.847644 -0.522298
vn -0.725391 -0.473048 -0.500034
vn -0.725391 -0.473048 -0.500034
vn -0.725391 -0.473048 -0.500034
vn -0.725391 -0.473048 -0.500034
vn -0.894735 0.326066 0.305173
vn -0.894735 0.326066 0.305173
vn -0.894735 0.326066 0.305173
vn -0.894735 0.326066 0.305173
vn -0.655511 0.147986 0.740544
vn -0.655511 0.147986 0.740544
vn -0.655511 0.147986 0.740544
vn -0.655511 0.147986 0.740544
vn 0.278950 -0.613959 0.738404
vn 0.278950 -0.613959 0.738404
vn 0.278950 -0.613959 0.738405
vn 0.278950 -0.613959 0.738405
vn 0.842632 -0.518237 0.146297
vn 0.842632 -0.518237 0.146297
vn 0.842632 -0.518237 0.146297
vn 0.842632 -0.518237 0.146297
vn 0.905170 -0.362725 -0.221579
vn 0.905170 -0.362725 -0.221579
vn 0.905170 -0.362725 -0.221579
vn 0.905170 -0.362725 -0.221579
vn 0.699485 -0.301798 -0.647796
vn 0.699485 -0.301798 -0.647796
vn 0.699485 -0.301798 -0.647796
vn 0.699485 -0.301798 -0.647796
vn -0.175400 -0.888131 -0.424804
vn -0.175400 -0.888131 -0.424804
vn -0.175400 -0.888131 -0.424804
vn -0.175400 -0.888130 -0.424804
vn -0.860767 -0.203145 -0.466703
vn -0.860767 -0.203145 -0.466703
vn -0.860767 -0.203145 -0.466703
vn -0.860767 -0.203145 -0.466703
vn -0.844742 0.423176 0.327617
vn -0.844742 0.423176 0.327617
vn -0.844742 0.423176 0.327617
vn -0.844742 0.423176 0.327617
vn -0.216570 0.798842 0.561202
vn -0.216570 0.798842 0.561202
vn -0.216570 0.798842 0.561202
vn -0.216570 0.798842 0.561202
vn 0.180801 0.604730 0.775637
vn 0.180801 0.604730 0.775637
vn 0.180801 0.604730 0.775637
vn 0.180801 0.604730 0.775637
vn 0.946487 0.128322 0.296134
vn 0.946487 0.128322 0.296134
vn 0.946487 0.128322 0.296134
vn 0.946487 0.128322 0.296134
vn 0.894359 -0.397454 -0.205311
vn 0.894359 -0.397454 -0.205311
vn 0.894359 -0.397454 -0.205311
vn 0.894359 -0.397454 -0.205311
vn 0.061522 0.664988 -0.744316
vn 0.061522 0.664988 -0.744316
vn 0.061522 0.664988 -0.744316
vn 0.061522 0.664988 -0.744316
vn -0.195392 0.880043 -0.432835
vn -0.195392 0.880043 -0.432835
vn -0.195392 0.880043 -0.432835
vn -0.195392 0.880043 -0.432835
vn -0.363698 0.774943 -0.516902
vn -0.363698 0.774943 -0.516901
vn -0.363698 0.774943 -0.516902
vn -0.363698 0.774943 -0.516902
vn -0.222361 0.956007 0.191327
vn -0.222361 0.956007 0.191327
vn -0.222361 0.956007 0.191327
vn -0.222361 0.956007 0.191327
vn -0.084360 0.932708 0.350628
vn -0.084360 0.932708 0.350628
vn -0.084360 0.932708 0.350628
vn -0.084360 0.932708 0.350628
vn 0.284132 0.402271 0.870314
vn 0.284132 0.402271 0.870314
vn 0.284132 0.402271 0.870314
vn 0.284132 0.402271 0.870314
vn 0.865723 0.061695 0.496707
vn 0.865723 0.061695 0.496707
vn 0.865723 0.061695 0.496707
vn 0.865723 0.061695 0.496707
vn 0.994687 0.078318 -0.066820
vn 0.994687 0.078318 -0.066820
vn 0.994687 0.078318 -0.066820
vn 0.994687 0.078318 -0.066820
vn -0.475038 0.763189 -0.438043
vn -0.475038 0.763189 -0.438043
vn -0.475038 0.763189 -0.438043
vn -0.475038 0.763189 -0.438043
vn -0.212969 0.883789 -0.416607
vn -0.212969 0.883789 -0.416607
vn -0.212969 0.883789 -0.416607
vn -0.212969 0.883789 -0.416607
vn 0.008209 0.924381 -0.381381
vn 0.008209 0.924381 -0.381381
vn 0.008209 0.924381 -0.381381
vn 0.008209 0.924381 -0.381381
vn 0.057214 0.987528 0.146682
vn 0.057214 0.987528 0.146682
vn 0.057214 0.987528 0.146682
vn 0.057214 0.987528 0.146682
vn -0.099108 0.973315 0.206969
vn -0.099108 0.973315 0.206969
vn -0.099108 0.973315 0.206969
vn -0.099108 0.973315 0.206969
vn -0.070536 0.940104 0.333511
vn -0.070536 0.940104 0.333511
vn -0.070536 0.940104 0.333511
vn -0.070536 0.940104 0.333511
vn -0.223989 0.832438 0.506830
vn -0.223989 0.832438 0.506830
vn -0.223989 0.832438 0.506830
vn -0.223989 0.832438 0.506830
vn -0.052966 0.992867 0.106815
vn -0.052966 0.992867 0.106815
vn -0.052966 0.992867 0.106815
vn -0.052966 0.992867 0.106815
vn 0.053600 -0.998020 -0.032900
vn 0.053600 -0.998020 -0.032900
vn 0.053600 -0.998020 -0.032900
vn 0.076132 -0.996888 0.020461
vn 0.076132 -0.996888 0.020461
vn 0.076132 -0.996888 0.020461
vn 0.034059 -0.999047 0.027305
vn 0.034059 -0.999047 0.027305
vn 0.034059 -0.999047 0.027305
vn 0.034877 -0.999323 0.011675
vn 0.034877 -0.999323 0.011675
vn 0.034877 -0.999323 0.011675
vn 0.014646 -0.999882 0.004534
vn 0.014646 -0.999883 0.004534
vn 0.014646 -0.999882 0.004534
vn 0.068260 -0.997661 -0.003565
vn 0.068260 -0.997661 -0.003565
vn 0.068260 -0.997661 -0.003565
vn 0.047630 -0.998785 0.012674
vn 0.047630 -0.998785 0.012674
vn 0.047630 -0.998785 0.012674
vn 0.051612 -0.998653 0.005311
vn 0.051612 -0.998653 0.005311
vn 0.051612 -0.998653 0.005311
vn -0.679865 0.732598 0.032914
vn -0.679865 0.732598 0.032914
vn -0.679865 0.732598 0.032914
vn -0.206363 0.973712 0.096431
vn -0.206363 0.973712 0.096431
vn -0.206363 0.973712 0.096431
vn 0.137437 0.979708 -0.145892
vn 0.137437 0.979708 -0.145892
vn 0.137437 0.979708 -0.145892
vn 0.000526 0.984075 0.177753
vn 0.000526 0.984075 0.177753
vn 0.000526 0.984075 0.177753
vn -0.103032 0.989303 0.103268
vn -0.103032 0.989303 0.103268
vn -0.103032 0.989303 0.103268
vn -0.373657 0.921884 0.102516
vn -0.373657 0.921884 0.102516
vn -0.373657 0.921884 0.102516
vn -0.563463 0.790862 0.238843
vn -0.563463 0.790863 0.238843
vn -0.563463 0.790862 0.238843
vn -0.560340 0.788020 0.255037
vn -0.560340 0.788020 0.255037
vn -0.560340 0.788020 0.255037
s off
g pSphere1
usemtl initialShadingGroup
f 1/1/1 2/2/2 10/11/3 9/10/4
f 2/2/5 3/3/6 11/12/7 10/11/8
f 3/3/9 4/4/10 12/13/11 11/12/12
f 4/4/13 5/5/14 13/14/15 12/13/16
f 5/5/17 6/6/18 14/15/19 13/14/20
f 6/6/21 7/7/22 15/16/23 14/15/24
f 7/7/25 8/8/26 16/17/27 15/16/28
f 8/8/29 1/9/30 9/18/31 16/17/32
f 9/10/33 10/11/34 18/20/35 17/19/36
f 10/11/37 11/12/38 19/21/39 18/20/40
f 11/12/41 12/13/42 20/22/43 19/21/44
f 12/13/45 13/14/46 21/23/47 20/22/48
f 13/14/49 14/15/50 22/24/51 21/23/52
f 14/15/53 15/16/54 23/25/55 22/24/56
f 15/16/57 16/17/58 24/26/59 23/25/60
f 16/17/61 9/18/62 17/27/63 24/26/64
f 17/19/65 18/20/66 26/29/67 25/28/68
f 18/20/69 19/21/70 27/30/71 26/29/72
f 19/21/73 20/22/74 28/31/75 27/30/76
f 20/22/77 21/23/78 29/32/79 28/31/80
f 21/23/81 22/24/82 30/33/83 29/32/84
f 22/24/85 23/25/86 31/34/87 30/33/88
f 23/25/89 24/26/90 32/35/91 31/34/92
f 24/26/93 17/27/94 25/36/95 32/35/96
f 25/28/97 26/29/98 34/38/99 33/37/100
f 26/29/101 27/30/102 35/39/103 34/38/104
f 27/30/105 28/31/106 36/40/107 35/39/108
f 28/31/109 29/32/110 37/41/111 36/40/112
f 29/32/113 30/33/114 38/42/115 37/41/116
f 30/33/117 31/34/118 39/43/119 38/42/120
f 31/34/121 32/35/122 40/44/123 39/43/124
f 32/35/125 25/36/126 33/45/127 40/44/128
f 33/37/129 34/38/130 42/47/131 41/46/132
f 34/38/133 35/39/134 43/48/135 42/47/136
f 35/39/137 36/40/138 44/49/139 43/48/140
f 36/40/141 37/41/142 45/50/143 44/49/144
f 37/41/145 38/42/146 46/51/147 45/50/148
f 38/42/149 39/43/150 47/52/151 46/51/152
f 39/43/153 40/44/154 48/53/155 47/52/156
f 40/44/157 33/45/158 41/54/159 48/53/160
f 41/46/161 42/47/162 50/56/163 49/55/164
f 42/47/165 43/48/166 51/57/167 50/56/168
f 43/48/169 44/49/170 52/58/171 51/57/172
f 44/49/173 45/50/174 53/59/175 52/58/176
f 45/50/177 46/51/178 54/60/179 53/59/180
f 46/51/181 47/52/182 55/61/183 54/60/184
f 47/52/185 48/53/186 56/62/187 55/61/188
f 48/53/189 41/54/190 49/63/191 56/62/192
f 2/2/193 1/1/194 57/64/195
f 3/3/196 2/2/197 57/65/198
f 4/4/199 3/3/200 57/66/201
f 5/5/202 4/4/203 57/67/204
f 6/6/205 5/5/206 57/68/207
f 7/7/208 6/6/209 57/69/210
f 8/8/211 7/7/212 57/70/213
f 1/9/214 8/8/215 57/71/216
f 49/55/217 50/56/218 58/72/219
f 50/56/220 51/57/221 58/73/222
f 51/57/223 52/58/224 58/74/225
f 52/58/226 53/59/227 58/75/228
f 53/59/229 54/60/230 58/76/231
f 54/60/232 55/61/233 58/77/234
f 55/61/235 56/62/236 58/78/237
f 56/62/238 49/63/239 58/79/240
