# This file uses centimeters as units for non-parametric coordinates.

mtllib Rock1.mtl
g default
v 2.607198 -4.319774 -2.705981
v 0.000000 -4.724574 -3.826834
v -2.705981 -4.724574 -2.705981
v -3.826834 -4.724574 0.000000
v -2.705981 -4.724574 2.705981
v 0.000000 -4.724574 3.826834
v 2.705981 -4.724574 2.705981
v 3.728053 -4.319774 0.000000
v 4.598061 -2.584703 -5.000000
v 0.000000 -4.231814 -7.071067
v -5.000000 -4.231814 -5.000000
v -7.071067 -4.231814 0.000000
v -5.000000 -4.231814 5.000000
v 0.000000 -4.231814 7.071067
v 5.000000 -4.231814 5.000000
v 6.669129 -2.352199 0.000000
v 6.480710 -2.521589 -6.532814
v 0.000000 -1.171267 -9.238794
v -6.532814 -2.573657 -6.824397
v -9.438085 -2.570708 -0.024527
v -6.732104 -2.560443 6.904790
v 0.000000 -2.532444 9.238794
v 6.625437 -3.266966 6.707296
v 9.474480 -2.136960 0.000000
v 7.071067 0.000000 -7.071067
v -0.001277 0.561598 -10.457663
v -7.111853 0.000000 -9.806686
v -12.016546 0.000000 -2.950426
v -9.087614 0.015574 9.135345
v 0.000000 0.107886 9.999999
v 8.008280 0.000000 8.836595
v 12.776192 0.000000 0.000000
v 6.532814 3.826834 -6.532814
v -0.713255 3.826834 -10.181292
v -7.246069 3.826834 -7.766895
v -9.438085 3.692533 -0.024527
v -6.732104 3.826834 8.597093
v 0.000000 3.826834 9.238794
v 7.470027 3.826834 8.298342
v 12.014987 3.826834 0.000000
v 5.000000 7.071068 -5.000000
v 0.000000 7.071068 -7.535456
v -5.000000 5.671334 -5.359367
v -7.071067 6.028063 0.000000
v -5.000000 7.071068 5.172587
v 0.000000 7.071068 7.071067
v 5.092622 7.071068 5.174482
v 7.345431 7.071068 0.000000
v 2.705981 9.413814 -2.705981
v 0.000000 8.866956 -3.826834
v -2.705981 8.220391 -2.705981
v -3.826834 9.870204 0.000000
v -2.705981 9.259592 2.705981
v 0.000000 9.413814 3.826834
v 2.705981 9.413814 2.705981
v 3.826835 9.413814 0.000000
v 0.000000 -5.485779 0.000000
v 0.000000 11.335514 0.000000
vt 0.000000 0.125000
vt 0.125000 0.125000
vt 0.250000 0.125000
vt 0.375000 0.125000
vt 0.500000 0.125000
vt 0.625000 0.125000
vt 0.750000 0.125000
vt 0.875000 0.125000
vt 1.000000 0.125000
vt 0.000000 0.250000
vt 0.125000 0.250000
vt 0.250000 0.250000
vt 0.375000 0.250000
vt 0.500000 0.250000
vt 0.625000 0.250000
vt 0.750000 0.250000
vt 0.875000 0.250000
vt 1.000000 0.250000
vt 0.000000 0.375000
vt 0.125000 0.375000
vt 0.250000 0.375000
vt 0.375000 0.375000
vt 0.500000 0.375000
vt 0.625000 0.375000
vt 0.750000 0.375000
vt 0.875000 0.375000
vt 1.000000 0.375000
vt 0.000000 0.500000
vt 0.125000 0.500000
vt 0.250000 0.500000
vt 0.375000 0.500000
vt 0.500000 0.500000
vt 0.625000 0.500000
vt 0.750000 0.500000
vt 0.875000 0.500000
vt 1.000000 0.500000
vt 0.000000 0.625000
vt 0.125000 0.625000
vt 0.250000 0.625000
vt 0.375000 0.625000
vt 0.500000 0.625000
vt 0.625000 0.625000
vt 0.750000 0.625000
vt 0.875000 0.625000
vt 1.000000 0.625000
vt 0.000000 0.750000
vt 0.125000 0.750000
vt 0.250000 0.750000
vt 0.375000 0.750000
vt 0.500000 0.750000
vt 0.625000 0.750000
vt 0.750000 0.750000
vt 0.875000 0.750000
vt 1.000000 0.750000
vt 0.000000 0.875000
vt 0.125000 0.875000
vt 0.250000 0.875000
vt 0.375000 0.875000
vt 0.500000 0.875000
vt 0.625000 0.875000
vt 0.750000 0.875000
vt 0.875000 0.875000
vt 1.000000 0.875000
vt 0.062500 0.000000
vt 0.187500 0.000000
vt 0.312500 0.000000
vt 0.437500 0.000000
vt 0.562500 0.000000
vt 0.687500 0.000000
vt 0.812500 0.000000
vt 0.937500 0.000000
vt 0.062500 1.000000
vt 0.187500 1.000000
vt 0.312500 1.000000
vt 0.437500 1.000000
vt 0.562500 1.000000
vt 0.687500 1.000000
vt 0.812500 1.000000
vt 0.937500 1.000000
vn 0.360634 -0.902982 -0.233597
vn 0.360634 -0.902982 -0.233597
vn 0.360634 -0.902982 -0.233597
vn 0.360634 -0.902982 -0.233597
vn -0.062081 -0.986754 -0.149876
vn -0.062081 -0.986754 -0.149876
vn -0.062081 -0.986754 -0.149876
vn -0.062081 -0.986754 -0.149876
vn -0.149876 -0.986754 -0.062081
vn -0.149876 -0.986754 -0.062081
vn -0.149876 -0.986754 -0.062081
vn -0.149876 -0.986754 -0.062081
vn -0.149876 -0.986754 0.062081
vn -0.149876 -0.986754 0.062081
vn -0.149876 -0.986754 0.062081
vn -0.149876 -0.986754 0.062081
vn -0.062081 -0.986754 0.149876
vn -0.062081 -0.986754 0.149876
vn -0.062081 -0.986754 0.149876
vn -0.062081 -0.986754 0.149876
vn 0.062081 -0.986754 0.149876
vn 0.062081 -0.986754 0.149876
vn 0.062081 -0.986754 0.149876
vn 0.062081 -0.986754 0.149876
vn 0.459158 -0.882563 -0.101279
vn 0.459158 -0.882563 -0.101279
vn 0.459158 -0.882563 -0.101279
vn 0.459158 -0.882563 -0.101279
vn 0.529494 -0.825737 -0.194410
vn 0.529494 -0.825737 -0.194410
vn 0.529494 -0.825737 -0.194410
vn 0.529494 -0.825737 -0.194410
vn 0.256037 -0.798963 -0.544154
vn 0.256037 -0.798963 -0.544154
vn 0.256037 -0.798963 -0.544154
vn 0.256037 -0.798963 -0.544154
vn -0.197027 -0.669738 -0.715982
vn -0.197027 -0.669738 -0.715982
vn -0.197027 -0.669738 -0.715982
vn -0.197027 -0.669738 -0.715982
vn -0.562134 -0.792400 -0.236870
vn -0.562134 -0.792400 -0.236870
vn -0.562134 -0.792400 -0.236870
vn -0.562134 -0.792400 -0.236870
vn -0.551877 -0.803919 0.221689
vn -0.551877 -0.803919 0.221689
vn -0.551877 -0.803919 0.221689
vn -0.551877 -0.803919 0.221689
vn -0.211464 -0.795221 0.568249
vn -0.211464 -0.795221 0.568249
vn -0.211464 -0.795221 0.568249
vn -0.211464 -0.795221 0.568249
vn 0.151110 -0.843019 0.516221
vn 0.151110 -0.843019 0.516221
vn 0.151110 -0.843019 0.516221
vn 0.151110 -0.843019 0.516221
vn 0.300673 -0.945239 -0.126957
vn 0.300673 -0.945239 -0.126957
vn 0.300673 -0.945239 -0.126957
vn 0.300673 -0.945239 -0.126957
vn 0.067049 -0.997463 0.023930
vn 0.067049 -0.997463 0.023930
vn 0.067049 -0.997463 0.023930
vn 0.067049 -0.997463 0.023930
vn 0.328533 -0.399046 -0.856054
vn 0.328533 -0.399046 -0.856054
vn 0.328533 -0.399046 -0.856054
vn 0.328533 -0.399046 -0.856054
vn -0.058728 -0.701134 -0.710606
vn -0.058728 -0.701134 -0.710606
vn -0.058728 -0.701134 -0.710607
vn -0.058728 -0.701134 -0.710606
vn -0.583175 -0.740796 -0.333359
vn -0.583175 -0.740796 -0.333359
vn -0.583175 -0.740796 -0.333359
vn -0.583175 -0.740796 -0.333359
vn -0.719421 -0.660757 0.214090
vn -0.719420 -0.660757 0.214090
vn -0.719421 -0.660757 0.214090
vn -0.719420 -0.660757 0.214090
vn -0.162178 -0.545018 0.822590
vn -0.162178 -0.545018 0.822590
vn -0.162178 -0.545018 0.822590
vn -0.162178 -0.545018 0.822590
vn 0.191081 -0.467146 0.863286
vn 0.191081 -0.467146 0.863286
vn 0.191081 -0.467146 0.863286
vn 0.191081 -0.467146 0.863286
vn 0.669028 -0.689399 0.277725
vn 0.669028 -0.689399 0.277725
vn 0.669028 -0.689399 0.277725
vn 0.669028 -0.689399 0.277725
vn 0.674459 -0.611322 -0.413993
vn 0.674459 -0.611322 -0.413993
vn 0.674459 -0.611322 -0.413993
vn 0.674459 -0.611322 -0.413993
vn 0.439522 0.178596 -0.880298
vn 0.439522 0.178596 -0.880298
vn 0.439522 0.178596 -0.880298
vn 0.439522 0.178596 -0.880298
vn -0.221433 0.278767 -0.934482
vn -0.221433 0.278767 -0.934482
vn -0.221433 0.278767 -0.934482
vn -0.221433 0.278767 -0.934482
vn -0.780154 0.501004 -0.374641
vn -0.780154 0.501004 -0.374641
vn -0.780154 0.501004 -0.374641
vn -0.780154 0.501004 -0.374641
vn -0.845367 0.483771 0.226541
vn -0.845367 0.483771 0.226541
vn -0.845367 0.483771 0.226541
vn -0.845367 0.483771 0.226541
vn -0.094062 0.197799 0.975719
vn -0.094062 0.197799 0.975719
vn -0.094062 0.197799 0.975719
vn -0.094062 0.197799 0.975719
vn 0.133761 0.177446 0.974998
vn 0.133761 0.177446 0.974998
vn 0.133761 0.177446 0.974998
vn 0.133761 0.177446 0.974998
vn 0.864301 0.179779 0.469749
vn 0.864301 0.179779 0.469749
vn 0.864301 0.179779 0.469749
vn 0.864301 0.179779 0.469749
vn 0.760707 0.173149 -0.625575
vn 0.760707 0.173149 -0.625575
vn 0.760707 0.173149 -0.625575
vn 0.760707 0.173149 -0.625575
vn 0.381074 0.534132 -0.754642
vn 0.381074 0.534132 -0.754642
vn 0.381074 0.534132 -0.754642
vn 0.381074 0.534132 -0.754643
vn -0.319627 0.754761 -0.572866
vn -0.319627 0.754761 -0.572866
vn -0.319627 0.754761 -0.572866
vn -0.319627 0.754761 -0.572866
vn -0.594864 0.776784 -0.206746
vn -0.594864 0.776784 -0.206746
vn -0.594864 0.776784 -0.206746
vn -0.594864 0.776784 -0.206746
vn -0.729185 0.655473 0.196580
vn -0.729185 0.655473 0.196580
vn -0.729185 0.655473 0.196580
vn -0.729185 0.655473 0.196580
vn -0.157380 0.668490 0.726879
vn -0.157380 0.668490 0.726879
vn -0.157380 0.668490 0.726879
vn -0.157380 0.668490 0.726879
vn 0.165680 0.659023 0.733648
vn 0.165680 0.659023 0.733648
vn 0.165680 0.659023 0.733648
vn 0.165680 0.659023 0.733647
vn 0.575360 0.764648 0.290300
vn 0.575360 0.764648 0.290300
vn 0.575360 0.764648 0.290300
vn 0.575360 0.764648 0.290300
vn 0.607830 0.678488 -0.412549
vn 0.607830 0.678488 -0.412549
vn 0.607830 0.678488 -0.412549
vn 0.607830 0.678488 -0.412549
vn 0.182299 0.840668 -0.509946
vn 0.182299 0.840668 -0.509946
vn 0.182299 0.840668 -0.509946
vn 0.182299 0.840668 -0.509946
vn -0.395550 0.818607 -0.416441
vn -0.395550 0.818607 -0.416441
vn -0.395550 0.818607 -0.416441
vn -0.395550 0.818607 -0.416441
vn -0.599078 0.688690 -0.408426
vn -0.599078 0.688690 -0.408426
vn -0.599078 0.688690 -0.408426
vn -0.599078 0.688690 -0.408426
vn -0.667481 0.707700 0.231583
vn -0.667481 0.707700 0.231583
vn -0.667481 0.707700 0.231583
vn -0.667481 0.707700 0.231583
vn -0.230219 0.805236 0.546437
vn -0.230219 0.805236 0.546437
vn -0.230219 0.805236 0.546437
vn -0.230219 0.805236 0.546437
vn 0.217809 0.797289 0.562929
vn 0.217809 0.797289 0.562929
vn 0.217809 0.797290 0.562929
vn 0.217809 0.797290 0.562929
vn 0.543040 0.806884 0.232478
vn 0.543040 0.806884 0.232478
vn 0.543040 0.806884 0.232478
vn 0.543040 0.806884 0.232478
vn 0.547484 0.799758 -0.246268
vn 0.547484 0.799758 -0.246268
vn 0.547484 0.799758 -0.246268
vn 0.547484 0.799758 -0.246268
vn 0.229828 -0.954531 -0.189868
vn 0.229828 -0.954531 -0.189868
vn 0.229828 -0.954531 -0.189868
vn -0.080546 -0.977599 -0.194456
vn -0.080546 -0.977599 -0.194456
vn -0.080546 -0.977599 -0.194456
vn -0.194456 -0.977599 -0.080546
vn -0.194456 -0.977599 -0.080546
vn -0.194456 -0.977599 -0.080546
vn -0.194456 -0.977599 0.080546
vn -0.194456 -0.977599 0.080546
vn -0.194456 -0.977599 0.080546
vn -0.080547 -0.977599 0.194456
vn -0.080547 -0.977599 0.194456
vn -0.080546 -0.977599 0.194456
vn 0.080546 -0.977599 0.194456
vn 0.080546 -0.977599 0.194456
vn 0.080546 -0.977599 0.194456
vn 0.298371 -0.953978 -0.030013
vn 0.298371 -0.953978 -0.030013
vn 0.298371 -0.953978 -0.030013
vn 0.296250 -0.947195 -0.122711
vn 0.296249 -0.947195 -0.122711
vn 0.296249 -0.947195 -0.122711
vn 0.054626 0.839079 -0.541261
vn 0.054626 0.839079 -0.541261
vn 0.054626 0.839079 -0.541261
vn -0.391391 0.773296 -0.498826
vn -0.391391 0.773295 -0.498826
vn -0.391391 0.773296 -0.498826
vn -0.290538 0.758776 -0.582964
vn -0.290538 0.758775 -0.582964
vn -0.290538 0.758776 -0.582964
vn -0.336572 0.878998 0.337761
vn -0.336572 0.878998 0.337761
vn -0.336572 0.878998 0.337761
vn -0.230441 0.869601 0.436683
vn -0.230441 0.869601 0.436683
vn -0.230441 0.869601 0.436683
vn 0.182752 0.878602 0.441203
vn 0.182752 0.878602 0.441203
vn 0.182752 0.878602 0.441203
vn 0.441203 0.878602 0.182752
vn 0.441203 0.878602 0.182752
vn 0.441203 0.878602 0.182752
vn 0.441203 0.878602 -0.182752
vn 0.441203 0.878602 -0.182752
vn 0.441203 0.878602 -0.182752
s off
g pSphere1
usemtl initialShadingGroup
f 1/1/1 2/2/2 10/11/3 9/10/4
f 2/2/5 3/3/6 11/12/7 10/11/8
f 3/3/9 4/4/10 12/13/11 11/12/12
f 4/4/13 5/5/14 13/14/15 12/13/16
f 5/5/17 6/6/18 14/15/19 13/14/20
f 6/6/21 7/7/22 15/16/23 14/15/24
f 7/7/25 8/8/26 16/17/27 15/16/28
f 8/8/29 1/9/30 9/18/31 16/17/32
f 9/10/33 10/11/34 18/20/35 17/19/36
f 10/11/37 11/12/38 19/21/39 18/20/40
f 11/12/41 12/13/42 20/22/43 19/21/44
f 12/13/45 13/14/46 21/23/47 20/22/48
f 13/14/49 14/15/50 22/24/51 21/23/52
f 14/15/53 15/16/54 23/25/55 22/24/56
f 15/16/57 16/17/58 24/26/59 23/25/60
f 16/17/61 9/18/62 17/27/63 24/26/64
f 17/19/65 18/20/66 26/29/67 25/28/68
f 18/20/69 19/21/70 27/30/71 26/29/72
f 19/21/73 20/22/74 28/31/75 27/30/76
f 20/22/77 21/23/78 29/32/79 28/31/80
f 21/23/81 22/24/82 30/33/83 29/32/84
f 22/24/85 23/25/86 31/34/87 30/33/88
f 23/25/89 24/26/90 32/35/91 31/34/92
f 24/26/93 17/27/94 25/36/95 32/35/96
f 25/28/97 26/29/98 34/38/99 33/37/100
f 26/29/101 27/30/102 35/39/103 34/38/104
f 27/30/105 28/31/106 36/40/107 35/39/108
f 28/31/109 29/32/110 37/41/111 36/40/112
f 29/32/113 30/33/114 38/42/115 37/41/116
f 30/33/117 31/34/118 39/43/119 38/42/120
f 31/34/121 32/35/122 40/44/123 39/43/124
f 32/35/125 25/36/126 33/45/127 40/44/128
f 33/37/129 34/38/130 42/47/131 41/46/132
f 34/38/133 35/39/134 43/48/135 42/47/136
f 35/39/137 36/40/138 44/49/139 43/48/140
f 36/40/141 37/41/142 45/50/143 44/49/144
f 37/41/145 38/42/146 46/51/147 45/50/148
f 38/42/149 39/43/150 47/52/151 46/51/152
f 39/43/153 40/44/154 48/53/155 47/52/156
f 40/44/157 33/45/158 41/54/159 48/53/160
f 41/46/161 42/47/162 50/56/163 49/55/164
f 42/47/165 43/48/166 51/57/167 50/56/168
f 43/48/169 44/49/170 52/58/171 51/57/172
f 44/49/173 45/50/174 53/59/175 52/58/176
f 45/50/177 46/51/178 54/60/179 53/59/180
f 46/51/181 47/52/182 55/61/183 54/60/184
f 47/52/185 48/53/186 56/62/187 55/61/188
f 48/53/189 41/54/190 49/63/191 56/62/192
f 2/2/193 1/1/194 57/64/195
f 3/3/196 2/2/197 57/65/198
f 4/4/199 3/3/200 57/66/201
f 5/5/202 4/4/203 57/67/204
f 6/6/205 5/5/206 57/68/207
f 7/7/208 6/6/209 57/69/210
f 8/8/211 7/7/212 57/70/213
f 1/9/214 8/8/215 57/71/216
f 49/55/217 50/56/218 58/72/219
f 50/56/220 51/57/221 58/73/222
f 51/57/223 52/58/224 58/74/225
f 52/58/226 53/59/227 58/75/228
f 53/59/229 54/60/230 58/76/231
f 54/60/232 55/61/233 58/77/234
f 55/61/235 56/62/236 58/78/237
f 56/62/238 49/63/239 58/79/240
