# This file uses centimeters as units for non-parametric coordinates.

mtllib Rock2.mtl
g default
v 4.644920 -4.370231 -2.156280
v 3.128514 -4.378921 -4.448872
v -0.825726 -5.014192 -5.270457
v -3.600463 -5.014195 -2.419941
v -1.961299 -4.594801 2.428200
v 0.233265 -4.373379 4.973297
v 1.497635 -4.370235 3.643840
v 3.179814 -4.371522 0.546127
v 4.726459 -2.921445 -5.034170
v 1.198738 -3.446531 -6.936569
v -2.647792 -3.619609 -6.113338
v -5.701010 -4.694369 -1.438135
v -3.280016 -4.292741 5.356154
v 0.202407 -4.265833 7.334993
v 4.367990 -4.265833 4.718449
v 5.189881 -2.712519 -0.101107
v 6.480710 -2.521589 -6.532814
v 0.057177 -1.152326 -8.475781
v -4.123731 -2.049836 -6.930601
v -7.971083 -2.570708 -0.024527
v -5.100787 -2.560443 6.904790
v 0.000000 -2.532444 10.555453
v 6.625437 -3.266966 6.897379
v 9.474480 -2.136960 0.000000
v 7.071067 0.173195 -7.381467
v 0.122801 0.732087 -10.634856
v -6.881162 -0.018065 -9.792261
v -9.138530 0.000000 -2.950426
v -6.056579 0.015574 9.135345
v 0.000000 0.107886 13.251387
v 8.008280 0.000000 12.087980
v 12.776192 0.000000 0.000000
v 6.532814 5.579330 -9.673643
v -0.713255 5.971660 -12.141667
v -7.968971 3.826834 -9.815806
v -7.947858 3.692533 -0.024527
v -5.207100 3.826834 8.597093
v 0.000000 3.826834 12.490182
v 7.470027 3.826834 11.549727
v 12.014987 3.826834 0.000000
v 5.000000 7.066073 -5.310400
v 0.000000 8.272081 -9.205052
v -5.722901 5.671334 -7.408278
v -6.722743 6.028063 0.000000
v -5.000000 6.863130 5.172587
v 0.000000 6.851631 7.513147
v 5.092622 6.917460 5.174482
v 7.345431 6.943753 0.000000
v 2.705981 7.097829 -2.705981
v 0.000000 8.951503 -3.967921
v -2.744045 7.939601 -2.813867
v -3.826834 7.247424 0.000000
v -2.705981 6.695164 2.705981
v 0.000000 6.835206 3.826834
v 2.705981 6.835206 2.705981
v 3.826835 6.835206 0.000000
v 0.115812 -4.583154 -0.127505
v 0.000000 7.208926 0.000000
vt 0.000000 0.125000
vt 0.125000 0.125000
vt 0.250000 0.125000
vt 0.375000 0.125000
vt 0.500000 0.125000
vt 0.625000 0.125000
vt 0.750000 0.125000
vt 0.875000 0.125000
vt 1.000000 0.125000
vt 0.000000 0.250000
vt 0.125000 0.250000
vt 0.250000 0.250000
vt 0.375000 0.250000
vt 0.500000 0.250000
vt 0.625000 0.250000
vt 0.750000 0.250000
vt 0.875000 0.250000
vt 1.000000 0.250000
vt 0.000000 0.375000
vt 0.125000 0.375000
vt 0.250000 0.375000
vt 0.375000 0.375000
vt 0.500000 0.375000
vt 0.625000 0.375000
vt 0.750000 0.375000
vt 0.875000 0.375000
vt 1.000000 0.375000
vt 0.000000 0.500000
vt 0.125000 0.500000
vt 0.250000 0.500000
vt 0.375000 0.500000
vt 0.500000 0.500000
vt 0.625000 0.500000
vt 0.750000 0.500000
vt 0.875000 0.500000
vt 1.000000 0.500000
vt 0.000000 0.625000
vt 0.125000 0.625000
vt 0.250000 0.625000
vt 0.375000 0.625000
vt 0.500000 0.625000
vt 0.625000 0.625000
vt 0.750000 0.625000
vt 0.875000 0.625000
vt 1.000000 0.625000
vt 0.000000 0.750000
vt 0.125000 0.750000
vt 0.250000 0.750000
vt 0.375000 0.750000
vt 0.500000 0.750000
vt 0.625000 0.750000
vt 0.750000 0.750000
vt 0.875000 0.750000
vt 1.000000 0.750000
vt 0.000000 0.875000
vt 0.125000 0.875000
vt 0.250000 0.875000
vt 0.375000 0.875000
vt 0.500000 0.875000
vt 0.625000 0.875000
vt 0.750000 0.875000
vt 0.875000 0.875000
vt 1.000000 0.875000
vt 0.062500 0.000000
vt 0.187500 0.000000
vt 0.312500 0.000000
vt 0.437500 0.000000
vt 0.562500 0.000000
vt 0.687500 0.000000
vt 0.812500 0.000000
vt 0.937500 0.000000
vt 0.062500 1.000000
vt 0.187500 1.000000
vt 0.312500 1.000000
vt 0.437500 1.000000
vt 0.562500 1.000000
vt 0.687500 1.000000
vt 0.812500 1.000000
vt 0.937500 1.000000
vn 0.483366 -0.726246 -0.488799
vn 0.483366 -0.726246 -0.488799
vn 0.483366 -0.726246 -0.488799
vn 0.483366 -0.726246 -0.488799
vn 0.079928 -0.772607 -0.629834
vn 0.079928 -0.772606 -0.629834
vn 0.079928 -0.772606 -0.629834
vn 0.079928 -0.772606 -0.629834
vn -0.377314 -0.830021 -0.410731
vn -0.377314 -0.830021 -0.410731
vn -0.377314 -0.830021 -0.410731
vn -0.377314 -0.830021 -0.410731
vn -0.071863 -0.992872 0.095079
vn -0.071863 -0.992873 0.095079
vn -0.071863 -0.992872 0.095079
vn -0.071863 -0.992873 0.095079
vn -0.014887 -0.997190 0.073420
vn -0.014887 -0.997190 0.073420
vn -0.014887 -0.997190 0.073420
vn -0.014887 -0.997190 0.073420
vn 0.028335 -0.998869 0.038196
vn 0.028335 -0.998869 0.038196
vn 0.028335 -0.998869 0.038196
vn 0.028335 -0.998869 0.038196
vn 0.344637 -0.935780 -0.074440
vn 0.344637 -0.935780 -0.074440
vn 0.344637 -0.935780 -0.074440
vn 0.344637 -0.935780 -0.074440
vn 0.884010 -0.449546 0.128196
vn 0.884010 -0.449546 0.128196
vn 0.884010 -0.449546 0.128196
vn 0.884010 -0.449546 0.128196
vn 0.180292 -0.753683 -0.632026
vn 0.180292 -0.753683 -0.632026
vn 0.180292 -0.753683 -0.632026
vn 0.180292 -0.753683 -0.632026
vn -0.155441 -0.588959 -0.793073
vn -0.155441 -0.588959 -0.793073
vn -0.155441 -0.588959 -0.793073
vn -0.155441 -0.588959 -0.793073
vn -0.655927 -0.589058 -0.471985
vn -0.655927 -0.589058 -0.471985
vn -0.655927 -0.589058 -0.471985
vn -0.655927 -0.589058 -0.471985
vn -0.566842 -0.787424 0.242186
vn -0.566842 -0.787424 0.242186
vn -0.566842 -0.787424 0.242186
vn -0.566842 -0.787424 0.242186
vn -0.304351 -0.827336 0.472108
vn -0.304351 -0.827336 0.472108
vn -0.304351 -0.827336 0.472109
vn -0.304351 -0.827336 0.472108
vn 0.167388 -0.903879 0.393681
vn 0.167388 -0.903879 0.393681
vn 0.167388 -0.903879 0.393681
vn 0.167388 -0.903879 0.393681
vn 0.275151 -0.952312 -0.131886
vn 0.275151 -0.952312 -0.131886
vn 0.275151 -0.952312 -0.131886
vn 0.275151 -0.952312 -0.131886
vn 0.160094 -0.987098 0.002828
vn 0.160094 -0.987098 0.002828
vn 0.160094 -0.987098 0.002828
vn 0.160094 -0.987098 0.002828
vn 0.229790 -0.557084 -0.798031
vn 0.229790 -0.557084 -0.798031
vn 0.229790 -0.557084 -0.798031
vn 0.229790 -0.557084 -0.798031
vn -0.013648 -0.791963 -0.610416
vn -0.013648 -0.791963 -0.610416
vn -0.013648 -0.791963 -0.610416
vn -0.013648 -0.791963 -0.610416
vn -0.539466 -0.797972 -0.268733
vn -0.539466 -0.797972 -0.268733
vn -0.539466 -0.797972 -0.268733
vn -0.539466 -0.797972 -0.268733
vn -0.899720 -0.333060 0.282090
vn -0.899720 -0.333060 0.282090
vn -0.899720 -0.333060 0.282090
vn -0.899720 -0.333060 0.282090
vn -0.423474 -0.661819 0.618600
vn -0.423474 -0.661819 0.618600
vn -0.423474 -0.661819 0.618600
vn -0.423474 -0.661819 0.618600
vn 0.143824 -0.803985 0.576995
vn 0.143824 -0.803985 0.576995
vn 0.143824 -0.803985 0.576995
vn 0.143824 -0.803985 0.576995
vn 0.630885 -0.747299 0.208633
vn 0.630885 -0.747299 0.208633
vn 0.630885 -0.747299 0.208633
vn 0.630885 -0.747299 0.208633
vn 0.673120 -0.614485 -0.411482
vn 0.673120 -0.614485 -0.411482
vn 0.673120 -0.614485 -0.411482
vn 0.673120 -0.614485 -0.411482
vn 0.343355 -0.276034 -0.897726
vn 0.343355 -0.276034 -0.897726
vn 0.343355 -0.276034 -0.897726
vn 0.343355 -0.276034 -0.897726
vn -0.173831 -0.199275 -0.964403
vn -0.173831 -0.199275 -0.964403
vn -0.173831 -0.199275 -0.964403
vn -0.173831 -0.199275 -0.964403
vn -0.989077 0.064528 -0.132526
vn -0.989077 0.064528 -0.132526
vn -0.989077 0.064528 -0.132526
vn -0.989077 0.064528 -0.132526
vn -0.948410 0.173399 0.265428
vn -0.948410 0.173399 0.265428
vn -0.948410 0.173399 0.265428
vn -0.948410 0.173399 0.265428
vn -0.568675 0.201762 0.797434
vn -0.568675 0.201762 0.797434
vn -0.568675 0.201762 0.797434
vn -0.568675 0.201762 0.797434
vn 0.133762 0.177446 0.974998
vn 0.133762 0.177446 0.974998
vn 0.133762 0.177446 0.974998
vn 0.133762 0.177446 0.974998
vn 0.915075 0.180718 0.360525
vn 0.915075 0.180718 0.360525
vn 0.915075 0.180718 0.360525
vn 0.915075 0.180718 0.360525
vn 0.835027 -0.018991 -0.549880
vn 0.835028 -0.018991 -0.549880
vn 0.835027 -0.018991 -0.549881
vn 0.835027 -0.018991 -0.549880
vn 0.322986 0.854415 -0.407008
vn 0.322986 0.854415 -0.407008
vn 0.322986 0.854415 -0.407008
vn 0.322986 0.854415 -0.407008
vn -0.423768 0.814210 -0.396840
vn -0.423768 0.814210 -0.396840
vn -0.423768 0.814210 -0.396840
vn -0.423768 0.814210 -0.396840
vn -0.753419 0.655532 -0.051350
vn -0.753419 0.655532 -0.051350
vn -0.753419 0.655532 -0.051350
vn -0.753419 0.655532 -0.051350
vn -0.880829 0.397556 0.257079
vn -0.880829 0.397556 0.257079
vn -0.880829 0.397556 0.257079
vn -0.880829 0.397556 0.257079
vn -0.332776 0.768637 0.546312
vn -0.332776 0.768637 0.546312
vn -0.332776 0.768637 0.546312
vn -0.332776 0.768637 0.546312
vn 0.113520 0.884426 0.452663
vn 0.113520 0.884426 0.452663
vn 0.113520 0.884426 0.452663
vn 0.113520 0.884426 0.452663
vn 0.528090 0.821274 0.215940
vn 0.528090 0.821274 0.215940
vn 0.528090 0.821274 0.215940
vn 0.528090 0.821274 0.215940
vn 0.512122 0.843498 -0.161992
vn 0.512122 0.843498 -0.161992
vn 0.512122 0.843498 -0.161992
vn 0.512122 0.843498 -0.161992
vn 0.357434 0.933727 0.019883
vn 0.357434 0.933727 0.019883
vn 0.357434 0.933727 0.019883
vn 0.357434 0.933727 0.019883
vn -0.428924 0.892782 -0.137714
vn -0.428924 0.892782 -0.137714
vn -0.428924 0.892782 -0.137714
vn -0.428924 0.892782 -0.137714
vn -0.470134 0.880056 -0.066904
vn -0.470134 0.880056 -0.066904
vn -0.470134 0.880056 -0.066904
vn -0.470134 0.880056 -0.066904
vn -0.184183 0.982396 0.031213
vn -0.184183 0.982396 0.031213
vn -0.184183 0.982396 0.031213
vn -0.184183 0.982396 0.031213
vn -0.002757 0.999516 -0.030981
vn -0.002757 0.999516 -0.030981
vn -0.002757 0.999516 -0.030981
vn -0.002757 0.999516 -0.030981
vn -0.013269 0.999853 -0.010885
vn -0.013269 0.999853 -0.010885
vn -0.013269 0.999853 -0.010885
vn -0.013269 0.999853 -0.010885
vn -0.028576 0.999552 -0.008899
vn -0.028576 0.999552 -0.008899
vn -0.028576 0.999552 -0.008899
vn -0.028576 0.999552 -0.008899
vn 0.006950 0.998964 0.044965
vn 0.006950 0.998964 0.044965
vn 0.006950 0.998964 0.044965
vn 0.006950 0.998964 0.044965
vn 0.037542 -0.999073 -0.021045
vn 0.037542 -0.999073 -0.021045
vn 0.037542 -0.999073 -0.021045
vn 0.147052 -0.987551 0.055847
vn 0.147052 -0.987551 0.055847
vn 0.147052 -0.987551 0.055847
vn 0.072104 -0.994925 0.070186
vn 0.072104 -0.994925 0.070186
vn 0.072104 -0.994925 0.070186
vn 0.078742 -0.995120 0.059461
vn 0.078742 -0.995120 0.059461
vn 0.078742 -0.995120 0.059461
vn 0.054536 -0.997719 0.039776
vn 0.054536 -0.997719 0.039776
vn 0.054536 -0.997719 0.039776
vn 0.044568 -0.998204 0.040026
vn 0.044568 -0.998204 0.040026
vn 0.044568 -0.998204 0.040026
vn 0.061470 -0.997537 0.033795
vn 0.061470 -0.997537 0.033795
vn 0.061470 -0.997537 0.033795
vn 0.061657 -0.997553 0.032950
vn 0.061657 -0.997553 0.032950
vn 0.061657 -0.997553 0.032950
vn 0.402501 0.838155 0.368089
vn 0.402501 0.838155 0.368089
vn 0.402501 0.838155 0.368089
vn -0.166185 0.902865 0.396507
vn -0.166185 0.902865 0.396507
vn -0.166185 0.902865 0.396507
vn 0.009759 0.970129 0.242395
vn 0.009759 0.970128 0.242395
vn 0.009759 0.970129 0.242395
vn 0.009864 0.980548 0.196033
vn 0.009864 0.980548 0.196033
vn 0.009864 0.980548 0.196033
vn -0.091384 0.991101 0.096788
vn -0.091384 0.991101 0.096788
vn -0.091384 0.991101 0.096788
vn 0.040227 0.994460 0.097117
vn 0.040227 0.994460 0.097117
vn 0.040227 0.994460 0.097117
vn 0.097117 0.994460 0.040227
vn 0.097117 0.994460 0.040227
vn 0.097117 0.994460 0.040227
vn 0.097042 0.993690 0.056245
vn 0.097042 0.993690 0.056245
vn 0.097042 0.993690 0.056245
s off
g pSphere1
usemtl initialShadingGroup
f 1/1/1 2/2/2 10/11/3 9/10/4
f 2/2/5 3/3/6 11/12/7 10/11/8
f 3/3/9 4/4/10 12/13/11 11/12/12
f 4/4/13 5/5/14 13/14/15 12/13/16
f 5/5/17 6/6/18 14/15/19 13/14/20
f 6/6/21 7/7/22 15/16/23 14/15/24
f 7/7/25 8/8/26 16/17/27 15/16/28
f 8/8/29 1/9/30 9/18/31 16/17/32
f 9/10/33 10/11/34 18/20/35 17/19/36
f 10/11/37 11/12/38 19/21/39 18/20/40
f 11/12/41 12/13/42 20/22/43 19/21/44
f 12/13/45 13/14/46 21/23/47 20/22/48
f 13/14/49 14/15/50 22/24/51 21/23/52
f 14/15/53 15/16/54 23/25/55 22/24/56
f 15/16/57 16/17/58 24/26/59 23/25/60
f 16/17/61 9/18/62 17/27/63 24/26/64
f 17/19/65 18/20/66 26/29/67 25/28/68
f 18/20/69 19/21/70 27/30/71 26/29/72
f 19/21/73 20/22/74 28/31/75 27/30/76
f 20/22/77 21/23/78 29/32/79 28/31/80
f 21/23/81 22/24/82 30/33/83 29/32/84
f 22/24/85 23/25/86 31/34/87 30/33/88
f 23/25/89 24/26/90 32/35/91 31/34/92
f 24/26/93 17/27/94 25/36/95 32/35/96
f 25/28/97 26/29/98 34/38/99 33/37/100
f 26/29/101 27/30/102 35/39/103 34/38/104
f 27/30/105 28/31/106 36/40/107 35/39/108
f 28/31/109 29/32/110 37/41/111 36/40/112
f 29/32/113 30/33/114 38/42/115 37/41/116
f 30/33/117 31/34/118 39/43/119 38/42/120
f 31/34/121 32/35/122 40/44/123 39/43/124
f 32/35/125 25/36/126 33/45/127 40/44/128
f 33/37/129 34/38/130 42/47/131 41/46/132
f 34/38/133 35/39/134 43/48/135 42/47/136
f 35/39/137 36/40/138 44/49/139 43/48/140
f 36/40/141 37/41/142 45/50/143 44/49/144
f 37/41/145 38/42/146 46/51/147 45/50/148
f 38/42/149 39/43/150 47/52/151 46/51/152
f 39/43/153 40/44/154 48/53/155 47/52/156
f 40/44/157 33/45/158 41/54/159 48/53/160
f 41/46/161 42/47/162 50/56/163 49/55/164
f 42/47/165 43/48/166 51/57/167 50/56/168
f 43/48/169 44/49/170 52/58/171 51/57/172
f 44/49/173 45/50/174 53/59/175 52/58/176
f 45/50/177 46/51/178 54/60/179 53/59/180
f 46/51/181 47/52/182 55/61/183 54/60/184
f 47/52/185 48/53/186 56/62/187 55/61/188
f 48/53/189 41/54/190 49/63/191 56/62/192
f 2/2/193 1/1/194 57/64/195
f 3/3/196 2/2/197 57/65/198
f 4/4/199 3/3/200 57/66/201
f 5/5/202 4/4/203 57/67/204
f 6/6/205 5/5/206 57/68/207
f 7/7/208 6/6/209 57/69/210
f 8/8/211 7/7/212 57/70/213
f 1/9/214 8/8/215 57/71/216
f 49/55/217 50/56/218 58/72/219
f 50/56/220 51/57/221 58/73/222
f 51/57/223 52/58/224 58/74/225
f 52/58/226 53/59/227 58/75/228
f 53/59/229 54/60/230 58/76/231
f 54/60/232 55/61/233 58/77/234
f 55/61/235 56/62/236 58/78/237
f 56/62/238 49/63/239 58/79/240
