# This file uses centimeters as units for non-parametric coordinates.

mtllib ter1.mtl
g default
v -250.000000 0.000000 250.000000
v -175.000000 0.000000 250.000000
v -125.000000 0.000000 250.000000
v -25.000000 0.000000 250.000000
v 50.000000 0.000000 250.000000
v 125.000000 0.000000 250.000000
v 250.000000 0.000000 250.000000
v -250.000000 1.475131 200.000000
v -175.000000 7.325048 200.000000
v -125.000000 2.723183 200.000000
v -25.000000 0.000000 200.000000
v 50.000000 -63.480968 200.000000
v 125.000000 -106.098312 200.000000
v 250.000000 -63.480968 200.000000
v -250.000000 71.663231 150.000000
v -175.000000 29.634626 150.000000
v -125.000000 15.362956 150.000000
v -25.000000 3.740866 150.000000
v 50.000000 -63.480968 150.000000
v 125.000000 -106.098312 150.000000
v 250.000000 -61.350517 150.000000
v -250.000000 163.277924 125.000000
v -175.000000 79.643089 125.000000
v -125.000000 62.360752 125.000000
v -25.000000 33.878387 125.000000
v 50.000000 -54.952675 125.000000
v 125.000000 -89.610306 125.000000
v 250.000000 -28.772989 125.000000
v -250.000000 362.040100 75.000000
v -175.000000 539.986206 75.000000
v -125.000000 267.177185 100.000000
v -25.000000 121.733978 75.000000
v 50.000000 -13.638827 75.000000
v 125.000000 32.436218 75.000000
v 250.000000 99.151436 75.000000
v -125.000000 539.986206 75.000000
v -250.000000 382.474884 50.000000
v -175.000000 575.266174 50.000000
v -125.000000 575.266174 50.000000
v -100.000000 304.925629 50.000000
v -25.000000 137.983551 50.000000
v 50.000000 -38.021111 50.000000
v 125.000000 38.781082 50.000000
v 250.000000 125.249321 50.000000
v -250.000000 382.474884 25.000000
v -175.000000 575.266174 25.000000
v -125.000000 575.266174 25.000000
v -100.000000 304.925629 25.000000
v -25.000000 137.983551 25.000000
v 50.000000 -95.037537 25.000000
v 125.000000 -23.273323 25.000000
v 250.000000 125.385925 25.000000
v -250.000000 362.040100 0.000000
v -175.000000 539.986206 0.000000
v -125.000000 539.986206 0.000000
v -25.000000 118.520363 0.000000
v 50.000000 -151.541290 0.000000
v 125.000000 -149.847565 0.000000
v 250.000000 109.763329 0.000000
v -100.000000 280.919434 0.000000
v -250.000000 69.754272 -75.000000
v -175.000000 69.807693 -75.000000
v -125.000000 38.859955 -75.000000
v -25.000000 -163.173630 -75.000000
v 50.000000 -261.767242 -75.000000
v 125.000000 -242.775208 -75.000000
v 250.000000 -30.491589 -75.000000
v -250.000000 22.541965 -100.000000
v -175.000000 59.062897 -100.000000
v -125.000000 30.982969 -100.000000
v -25.000000 -200.832062 -100.000000
v 50.000000 -273.036682 -100.000000
v 125.000000 -198.962418 -100.000000
v 250.000000 -55.898296 -100.000000
v -250.000000 7.124485 -125.000000
v -175.000000 39.828728 -125.000000
v -125.000000 16.954639 -125.000000
v -25.000000 -205.972061 -125.000000
v 50.000000 -285.258331 -125.000000
v 125.000000 -163.870758 -125.000000
v 250.000000 -64.573364 -125.000000
v -250.000000 0.000000 -175.000000
v -175.000000 2.574445 -175.000000
v -125.000000 0.085049 -175.000000
v -25.000000 -134.740799 -175.000000
v 50.000000 -214.027206 -175.000000
v 125.000000 -126.906769 -175.000000
v 250.000000 -64.573372 -175.000000
v -250.000000 0.000000 -200.000000
v -175.000000 0.000000 -200.000000
v -125.000000 -0.000004 -200.000000
v -25.000000 -75.693428 -200.000000
v 50.000000 -154.979767 -200.000000
v 125.000000 -110.245094 -200.000000
v 250.000000 -55.898289 -200.000000
v -250.000000 0.000000 -250.000000
v -175.000000 0.000000 -250.000000
v -125.000000 0.000001 -250.000000
v -25.000000 -0.000023 -250.000000
v 50.000000 -0.000061 -250.000000
v 125.000000 -0.000046 -250.000000
v 250.000000 -0.000046 -250.000000
vt 0.000000 0.000000
vt 0.150000 0.000000
vt 0.250000 0.000000
vt 0.450000 0.000000
vt 0.600000 0.000000
vt 0.750000 0.000000
vt 1.000000 0.000000
vt 0.000000 0.100000
vt 0.150000 0.100000
vt 0.250000 0.100000
vt 0.450000 0.100000
vt 0.600000 0.100000
vt 0.750000 0.100000
vt 1.000000 0.100000
vt 0.000000 0.200000
vt 0.150000 0.200000
vt 0.250000 0.200000
vt 0.450000 0.200000
vt 0.600000 0.200000
vt 0.750000 0.200000
vt 1.000000 0.200000
vt 0.000000 0.250000
vt 0.150000 0.250000
vt 0.250000 0.250000
vt 0.450000 0.250000
vt 0.600000 0.250000
vt 0.750000 0.250000
vt 1.000000 0.250000
vt 0.000000 0.350000
vt 0.150000 0.350000
vt 0.250000 0.300000
vt 0.450000 0.350000
vt 0.600000 0.350000
vt 0.750000 0.350000
vt 1.000000 0.350000
vt 0.250000 0.350000
vt 0.000000 0.400000
vt 0.150000 0.400000
vt 0.250000 0.400000
vt 0.300000 0.400000
vt 0.450000 0.400000
vt 0.600000 0.400000
vt 0.750000 0.400000
vt 1.000000 0.400000
vt 0.000000 0.450000
vt 0.150000 0.450000
vt 0.250000 0.450000
vt 0.300000 0.450000
vt 0.450000 0.450000
vt 0.600000 0.450000
vt 0.750000 0.450000
vt 1.000000 0.450000
vt 0.000000 0.500000
vt 0.150000 0.500000
vt 0.250000 0.500000
vt 0.450000 0.500000
vt 0.600000 0.500000
vt 0.750000 0.500000
vt 1.000000 0.500000
vt 0.300000 0.500000
vt 0.000000 0.650000
vt 0.150000 0.650000
vt 0.250000 0.650000
vt 0.450000 0.650000
vt 0.600000 0.650000
vt 0.750000 0.650000
vt 1.000000 0.650000
vt 0.000000 0.700000
vt 0.150000 0.700000
vt 0.250000 0.700000
vt 0.450000 0.700000
vt 0.600000 0.700000
vt 0.750000 0.700000
vt 1.000000 0.700000
vt 0.000000 0.750000
vt 0.150000 0.750000
vt 0.250000 0.750000
vt 0.450000 0.750000
vt 0.600000 0.750000
vt 0.750000 0.750000
vt 1.000000 0.750000
vt 0.000000 0.850000
vt 0.150000 0.850000
vt 0.250000 0.850000
vt 0.450000 0.850000
vt 0.600000 0.850000
vt 0.750000 0.850000
vt 1.000000 0.850000
vt 0.000000 0.900000
vt 0.150000 0.900000
vt 0.250000 0.900000
vt 0.450000 0.900000
vt 0.600000 0.900000
vt 0.750000 0.900000
vt 1.000000 0.900000
vt 0.000000 1.000000
vt 0.150000 1.000000
vt 0.250000 1.000000
vt 0.450000 1.000000
vt 0.600000 1.000000
vt 0.750000 1.000000
vt 1.000000 1.000000
vn -0.038820 0.995399 0.087597
vn -0.038820 0.995399 0.087597
vn -0.038820 0.995399 0.087597
vn -0.038820 0.995399 0.087597
vn 0.045740 0.993948 0.099874
vn 0.045740 0.993948 0.099874
vn 0.045740 0.993948 0.099874
vn 0.045740 0.993948 0.099874
vn 0.013610 0.999537 0.027219
vn 0.013610 0.999537 0.027219
vn 0.013610 0.999537 0.027219
vn 0.013610 0.999537 0.027219
vn 0.336463 0.795032 -0.504694
vn 0.336463 0.795032 -0.504694
vn 0.336463 0.795033 -0.504694
vn 0.336463 0.795032 -0.504694
vn 0.142838 0.502745 -0.852552
vn 0.142838 0.502745 -0.852552
vn 0.142838 0.502745 -0.852552
vn 0.142838 0.502745 -0.852552
vn -0.086268 0.506060 -0.858173
vn -0.086268 0.506060 -0.858173
vn -0.086268 0.506060 -0.858173
vn -0.086268 0.506060 -0.858173
vn 0.174349 0.722864 0.668633
vn 0.174349 0.722864 0.668633
vn 0.174349 0.722864 0.668633
vn 0.174349 0.722864 0.668633
vn 0.175405 0.929372 0.324809
vn 0.175405 0.929372 0.324809
vn 0.175405 0.929372 0.324809
vn 0.175405 0.929372 0.324809
vn 0.070606 0.984385 0.161249
vn 0.070606 0.984385 0.161249
vn 0.070606 0.984385 0.161249
vn 0.070606 0.984385 0.161249
vn 0.656684 0.753638 0.028193
vn 0.656684 0.753639 0.028193
vn 0.656684 0.753639 0.028193
vn 0.656684 0.753639 0.028193
vn 0.494042 0.869438 0.000000
vn 0.494042 0.869438 0.000000
vn 0.494042 0.869438 0.000000
vn 0.494042 0.869438 0.000000
vn -0.329830 0.943826 0.020108
vn -0.329830 0.943826 0.020108
vn -0.329830 0.943826 0.020108
vn -0.329830 0.943826 0.020108
vn 0.268646 0.320673 0.908294
vn 0.268646 0.320673 0.908294
vn 0.268646 0.320673 0.908294
vn 0.268646 0.320673 0.908294
vn 0.143078 0.453439 0.879728
vn 0.143078 0.453439 0.879728
vn 0.143078 0.453439 0.879728
vn 0.143078 0.453439 0.879728
vn 0.108428 0.540726 0.834182
vn 0.108428 0.540726 0.834182
vn 0.108428 0.540726 0.834182
vn 0.108427 0.540726 0.834182
vn 0.635455 0.610807 0.472347
vn 0.635455 0.610807 0.472347
vn 0.635455 0.610807 0.472347
vn 0.635455 0.610807 0.472347
vn 0.418444 0.812251 0.406390
vn 0.418444 0.812251 0.406390
vn 0.418444 0.812251 0.406390
vn 0.418444 0.812251 0.406390
vn -0.288616 0.683372 0.670600
vn -0.288616 0.683372 0.670600
vn -0.288616 0.683372 0.670600
vn -0.288616 0.683372 0.670600
vn -0.093897 0.149341 0.984317
vn -0.093897 0.149341 0.984317
vn -0.093897 0.149341 0.984317
vn -0.093897 0.149341 0.984317
vn 0.076383 0.111718 0.990800
vn 0.076383 0.111718 0.990800
vn 0.076383 0.111718 0.990800
vn 0.076383 0.111718 0.990800
vn 0.319321 0.235242 0.917984
vn 0.319321 0.235242 0.917984
vn 0.319321 0.235242 0.917984
vn 0.319321 0.235242 0.917984
vn 0.675056 0.451635 0.583375
vn 0.675056 0.451635 0.583375
vn 0.675056 0.451635 0.583375
vn 0.675056 0.451635 0.583375
vn -0.039708 0.521679 0.852217
vn -0.039708 0.521679 0.852217
vn -0.039708 0.521679 0.852217
vn -0.039708 0.521679 0.852217
vn -0.186193 0.364933 0.912226
vn -0.186193 0.364933 0.912226
vn -0.186193 0.364933 0.912226
vn -0.186193 0.364933 0.912226
vn 0.000000 0.091257 0.995827
vn 0.000000 0.091257 0.995827
vn 0.000000 0.091257 0.995827
vn -0.855308 0.346057 0.385609
vn -0.855307 0.346057 0.385609
vn -0.855307 0.346057 0.385609
vn -0.855308 0.346057 0.385609
vn 0.000000 0.578172 0.815915
vn 0.000000 0.578172 0.815915
vn 0.000000 0.578172 0.815915
vn 0.000000 0.578172 0.815915
vn 0.928133 0.059633 0.367442
vn 0.928133 0.059633 0.367442
vn 0.928133 0.059633 0.367442
vn 0.928133 0.059633 0.367442
vn 0.758176 0.382472 0.528095
vn 0.758176 0.382472 0.528095
vn 0.758176 0.382472 0.528095
vn 0.758176 0.382472 0.528095
vn 0.898678 0.432920 -0.070416
vn 0.898678 0.432920 -0.070416
vn 0.898678 0.432920 -0.070416
vn 0.898678 0.432920 -0.070416
vn -0.610379 0.745108 -0.268797
vn -0.610379 0.745108 -0.268797
vn -0.610379 0.745108 -0.268797
vn -0.610379 0.745108 -0.268797
vn -0.457155 0.746091 0.484105
vn -0.457155 0.746091 0.484105
vn -0.457155 0.746091 0.484105
vn -0.457155 0.746091 0.484105
vn -0.931963 0.362554 0.000000
vn -0.931963 0.362554 0.000000
vn -0.931963 0.362554 0.000000
vn -0.931963 0.362554 0.000000
vn 0.000000 1.000000 0.000000
vn 0.000000 1.000000 0.000000
vn 0.000000 1.000000 0.000000
vn 0.000000 1.000000 0.000000
vn 0.995751 0.092083 0.000000
vn 0.995751 0.092083 0.000000
vn 0.995751 0.092083 0.000000
vn 0.995751 0.092083 0.000000
vn 0.912175 0.409801 0.000000
vn 0.912175 0.409801 0.000000
vn 0.912175 0.409801 0.000000
vn 0.912175 0.409801 0.000000
vn 0.873915 0.320487 -0.365460
vn 0.873915 0.320487 -0.365460
vn 0.873915 0.320487 -0.365460
vn 0.873915 0.320487 -0.365460
vn -0.358046 0.361501 -0.860884
vn -0.358046 0.361501 -0.860884
vn -0.358046 0.361501 -0.860884
vn -0.358046 0.361501 -0.860884
vn -0.508712 0.540890 -0.669814
vn -0.508712 0.540890 -0.669814
vn -0.508712 0.540890 -0.669814
vn -0.508712 0.540890 -0.669814
vn -0.855307 0.346057 -0.385609
vn -0.855307 0.346057 -0.385609
vn -0.855307 0.346057 -0.385609
vn -0.855308 0.346057 -0.385609
vn 0.000000 0.578172 -0.815915
vn 0.000000 0.578172 -0.815915
vn 0.000000 0.578172 -0.815915
vn 0.000000 0.578172 -0.815915
vn 0.989439 0.093448 -0.110803
vn 0.989439 0.093448 -0.110803
vn 0.989439 0.093448 -0.110803
vn 0.989439 0.093448 -0.110803
vn 0.856163 0.389944 -0.339012
vn 0.856163 0.389944 -0.339012
vn 0.856163 0.389944 -0.339012
vn 0.856163 0.389944 -0.339012
vn 0.879049 0.262099 -0.398217
vn 0.879049 0.262099 -0.398217
vn 0.879049 0.262099 -0.398217
vn 0.879049 0.262099 -0.398217
vn -0.127960 0.261293 -0.956740
vn -0.127960 0.261293 -0.956740
vn -0.127960 0.261293 -0.956740
vn -0.127960 0.261293 -0.956740
vn -0.476319 0.291669 -0.829488
vn -0.476319 0.291669 -0.829488
vn -0.476319 0.291669 -0.829488
vn -0.476319 0.291669 -0.829488
vn 0.000000 0.000000 -1.000000
vn 0.000000 0.000000 -1.000000
vn 0.000000 0.000000 -1.000000
vn -0.223280 0.188157 -0.956422
vn -0.223280 0.188157 -0.956422
vn -0.223279 0.188157 -0.956422
vn -0.223280 0.188157 -0.956422
vn 0.405416 0.174739 -0.897276
vn 0.405416 0.174739 -0.897276
vn 0.405416 0.174739 -0.897276
vn 0.405416 0.174739 -0.897276
vn 0.464809 0.223201 -0.856816
vn 0.464809 0.223201 -0.856816
vn 0.464809 0.223201 -0.856816
vn 0.464809 0.223201 -0.856816
vn 0.659990 0.268540 -0.701640
vn 0.659990 0.268540 -0.701640
vn 0.659990 0.268540 -0.701640
vn 0.659990 0.268540 -0.701640
vn -0.081641 0.592006 -0.801788
vn -0.081641 0.592006 -0.801788
vn -0.081641 0.592006 -0.801788
vn -0.081641 0.592006 -0.801788
vn -0.714480 0.378517 -0.588424
vn -0.714480 0.378517 -0.588424
vn -0.714480 0.378517 -0.588424
vn -0.714480 0.378517 -0.588424
vn -0.157291 0.645086 -0.747746
vn -0.157291 0.645086 -0.747746
vn -0.157291 0.645086 -0.747746
vn -0.157291 0.645086 -0.747746
vn 0.484039 0.820021 -0.305405
vn 0.484039 0.820021 -0.305405
vn 0.484039 0.820021 -0.305405
vn 0.484039 0.820021 -0.305405
vn 0.848565 0.391180 -0.356251
vn 0.848565 0.391180 -0.356251
vn 0.848565 0.391180 -0.356251
vn 0.848565 0.391180 -0.356251
vn 0.631213 0.554350 -0.542463
vn 0.631213 0.554350 -0.542463
vn 0.631213 0.554350 -0.542463
vn 0.631213 0.554350 -0.542463
vn -0.461352 0.743587 0.483976
vn -0.461352 0.743586 0.483976
vn -0.461352 0.743586 0.483976
vn -0.461352 0.743586 0.483976
vn -0.800118 0.562912 0.207220
vn -0.800119 0.562912 0.207220
vn -0.800119 0.562912 0.207220
vn -0.800118 0.562912 0.207220
vn -0.354657 0.768486 -0.532586
vn -0.354657 0.768486 -0.532586
vn -0.354657 0.768486 -0.532586
vn -0.354657 0.768486 -0.532586
vn 0.390548 0.766472 -0.509895
vn 0.390548 0.766472 -0.509895
vn 0.390548 0.766472 -0.509895
vn 0.390548 0.766472 -0.509895
vn 0.904667 0.397882 -0.152535
vn 0.904667 0.397882 -0.152535
vn 0.904667 0.397882 -0.152535
vn 0.904667 0.397882 -0.152535
vn 0.690292 0.683498 -0.237333
vn 0.690292 0.683498 -0.237333
vn 0.690292 0.683498 -0.237333
vn 0.690292 0.683498 -0.237333
vn -0.764242 0.586490 0.268260
vn -0.764242 0.586490 0.268260
vn -0.764242 0.586490 0.268260
vn -0.764242 0.586490 0.268260
vn -0.650802 0.671313 0.354676
vn -0.650802 0.671313 0.354676
vn -0.650802 0.671313 0.354676
vn -0.650802 0.671313 0.354676
vn -0.210171 0.893619 -0.396577
vn -0.210171 0.893619 -0.396577
vn -0.210171 0.893619 -0.396577
vn -0.210171 0.893619 -0.396577
vn 0.217709 0.858355 -0.464575
vn 0.217709 0.858355 -0.464575
vn 0.217709 0.858355 -0.464575
vn 0.217709 0.858355 -0.464575
vn 0.843682 0.471657 0.256400
vn 0.843682 0.471657 0.256400
vn 0.843682 0.471657 0.256400
vn 0.843682 0.471657 0.256400
vn 0.519115 0.491051 0.699563
vn 0.519115 0.491051 0.699563
vn 0.519115 0.491051 0.699563
vn 0.519115 0.491051 0.699563
vn -0.686258 0.493692 0.534151
vn -0.686258 0.493692 0.534151
vn -0.686259 0.493692 0.534151
vn -0.686259 0.493692 0.534151
vn -0.518527 0.802023 0.296460
vn -0.518527 0.802023 0.296460
vn -0.518527 0.802024 0.296460
vn -0.518527 0.802023 0.296460
vn -0.017138 0.998530 -0.051413
vn -0.017138 0.998530 -0.051413
vn -0.017138 0.998530 -0.051413
vn -0.017138 0.998530 -0.051413
vn 0.024851 0.998280 -0.053098
vn 0.024851 0.998280 -0.053098
vn 0.024851 0.998280 -0.053098
vn 0.024851 0.998280 -0.053098
vn 0.562750 0.534631 0.630462
vn 0.562750 0.534631 0.630462
vn 0.562750 0.534631 0.630462
vn 0.562750 0.534631 0.630462
vn 0.381067 0.360466 0.851383
vn 0.381067 0.360466 0.851383
vn 0.381067 0.360466 0.851383
vn 0.381067 0.360466 0.851383
vn -0.435965 0.495959 0.750972
vn -0.435965 0.495959 0.750972
vn -0.435965 0.495959 0.750972
vn -0.435965 0.495959 0.750972
vn -0.384343 0.823496 0.417294
vn -0.384343 0.823496 0.417294
vn -0.384343 0.823496 0.417294
vn -0.384343 0.823496 0.417294
vn 0.000000 1.000000 0.000000
vn 0.000000 1.000000 0.000000
vn 0.000000 1.000000 0.000000
vn 0.000000 1.000000 0.000000
vn 0.000000 1.000000 0.000000
vn 0.000000 1.000000 0.000000
vn 0.000000 1.000000 0.000000
vn 0.000000 1.000000 0.000000
vn 0.288899 0.763339 0.577798
vn 0.288899 0.763339 0.577798
vn 0.288899 0.763339 0.577798
vn 0.288899 0.763339 0.577798
vn 0.205742 0.389238 0.897867
vn 0.205742 0.389238 0.897867
vn 0.205742 0.389238 0.897867
vn 0.205742 0.389238 0.897867
vn -0.104637 0.350859 0.930564
vn -0.104637 0.350859 0.930564
vn -0.104637 0.350859 0.930564
vn -0.104637 0.350859 0.930564
vn -0.111406 0.512476 0.851444
vn -0.111406 0.512476 0.851444
vn -0.111406 0.512476 0.851444
vn -0.111406 0.512476 0.851444
s off
g ter1
usemtl initialShadingGroup
f 1/1/1 2/2/2 9/9/3 8/8/4
f 2/2/5 3/3/6 10/10/7 9/9/8
f 3/3/9 4/4/10 11/11/11 10/10/12
f 4/4/13 5/5/14 12/12/15 11/11/16
f 5/5/17 6/6/18 13/13/19 12/12/20
f 6/6/21 7/7/22 14/14/23 13/13/24
f 8/8/25 9/9/26 16/16/27 15/15/28
f 9/9/29 10/10/30 17/17/31 16/16/32
f 10/10/33 11/11/34 18/18/35 17/17/36
f 11/11/37 12/12/38 19/19/39 18/18/40
f 12/12/41 13/13/42 20/20/43 19/19/44
f 13/13/45 14/14/46 21/21/47 20/20/48
f 15/15/49 16/16/50 23/23/51 22/22/52
f 16/16/53 17/17/54 24/24/55 23/23/56
f 17/17/57 18/18/58 25/25/59 24/24/60
f 18/18/61 19/19/62 26/26/63 25/25/64
f 19/19/65 20/20/66 27/27/67 26/26/68
f 20/20/69 21/21/70 28/28/71 27/27/72
f 22/22/73 23/23/74 30/30/75 29/29/76
f 23/23/77 24/24/78 31/31/79 30/30/80
f 24/24/81 25/25/82 32/32/83 31/31/84
f 25/25/85 26/26/86 33/33/87 32/32/88
f 26/26/89 27/27/90 34/34/91 33/33/92
f 27/27/93 28/28/94 35/35/95 34/34/96
f 30/30/97 31/31/98 36/36/99
f 29/29/100 30/30/101 38/38/102 37/37/103
f 30/30/104 36/36/105 39/39/106 38/38/107
f 36/36/108 31/31/109 40/40/110 39/39/111
f 31/31/112 32/32/113 41/41/114 40/40/115
f 32/32/116 33/33/117 42/42/118 41/41/119
f 33/33/120 34/34/121 43/43/122 42/42/123
f 34/34/124 35/35/125 44/44/126 43/43/127
f 37/37/128 38/38/129 46/46/130 45/45/131
f 38/38/132 39/39/133 47/47/134 46/46/135
f 39/39/136 40/40/137 48/48/138 47/47/139
f 40/40/140 41/41/141 49/49/142 48/48/143
f 41/41/144 42/42/145 50/50/146 49/49/147
f 42/42/148 43/43/149 51/51/150 50/50/151
f 43/43/152 44/44/153 52/52/154 51/51/155
f 45/45/156 46/46/157 54/54/158 53/53/159
f 46/46/160 47/47/161 55/55/162 54/54/163
f 47/47/164 48/48/165 60/60/166 55/55/167
f 48/48/168 49/49/169 56/56/170 60/60/171
f 49/49/172 50/50/173 57/57/174 56/56/175
f 50/50/176 51/51/177 58/58/178 57/57/179
f 51/51/180 52/52/181 59/59/182 58/58/183
f 54/54/184 55/55/185 60/60/186
f 53/53/187 54/54/188 62/62/189 61/61/190
f 54/54/191 60/60/192 63/63/193 62/62/194
f 60/60/195 56/56/196 64/64/197 63/63/198
f 56/56/199 57/57/200 65/65/201 64/64/202
f 57/57/203 58/58/204 66/66/205 65/65/206
f 58/58/207 59/59/208 67/67/209 66/66/210
f 61/61/211 62/62/212 69/69/213 68/68/214
f 62/62/215 63/63/216 70/70/217 69/69/218
f 63/63/219 64/64/220 71/71/221 70/70/222
f 64/64/223 65/65/224 72/72/225 71/71/226
f 65/65/227 66/66/228 73/73/229 72/72/230
f 66/66/231 67/67/232 74/74/233 73/73/234
f 68/68/235 69/69/236 76/76/237 75/75/238
f 69/69/239 70/70/240 77/77/241 76/76/242
f 70/70/243 71/71/244 78/78/245 77/77/246
f 71/71/247 72/72/248 79/79/249 78/78/250
f 72/72/251 73/73/252 80/80/253 79/79/254
f 73/73/255 74/74/256 81/81/257 80/80/258
f 75/75/259 76/76/260 83/83/261 82/82/262
f 76/76/263 77/77/264 84/84/265 83/83/266
f 77/77/267 78/78/268 85/85/269 84/84/270
f 78/78/271 79/79/272 86/86/273 85/85/274
f 79/79/275 80/80/276 87/87/277 86/86/278
f 80/80/279 81/81/280 88/88/281 87/87/282
f 82/82/283 83/83/284 90/90/285 89/89/286
f 83/83/287 84/84/288 91/91/289 90/90/290
f 84/84/291 85/85/292 92/92/293 91/91/294
f 85/85/295 86/86/296 93/93/297 92/92/298
f 86/86/299 87/87/300 94/94/301 93/93/302
f 87/87/303 88/88/304 95/95/305 94/94/306
f 89/89/307 90/90/308 97/97/309 96/96/310
f 90/90/311 91/91/312 98/98/313 97/97/314
f 91/91/315 92/92/316 99/99/317 98/98/318
f 92/92/319 93/93/320 100/100/321 99/99/322
f 93/93/323 94/94/324 101/101/325 100/100/326
f 94/94/327 95/95/328 102/102/329 101/101/330
