# This file uses centimeters as units for non-parametric coordinates.

mtllib ter6.mtl
g default
v -250.000000 0.000000 250.000000
v -175.000000 0.000000 250.000000
v 25.000000 0.000000 250.000000
v 150.000000 0.000000 250.000000
v 250.000000 0.000000 250.000000
v -250.000000 -5.349276 200.000000
v -175.000000 -4.700179 200.000000
v 25.000000 11.580736 200.000000
v 150.000000 -9.274576 200.000000
v 250.000000 6.820131 200.000000
v -250.000000 -48.356056 125.000000
v -175.000000 -48.356056 125.000000
v 25.000000 -4.911201 125.000000
v 150.000000 -54.762657 125.000000
v 250.000000 -40.904800 125.000000
v -250.000000 0.000000 50.000000
v -175.000000 -17.084635 50.000000
v 25.000000 -33.352222 50.000000
v 150.000000 0.352202 50.000000
v 250.000000 14.634513 50.000000
v -250.000000 -3.893574 25.000000
v -175.000000 -8.964845 25.000000
v 25.000000 -50.470371 25.000000
v 150.000000 -0.296894 25.000000
v 250.000000 14.634513 25.000000
v -250.000000 -3.893574 -50.000000
v -175.000000 -3.893574 -50.000000
v 25.000000 -26.979265 -50.000000
v 150.000000 -48.356056 -50.000000
v 250.000000 0.000000 -50.000000
v -250.000000 0.000000 -100.000000
v -175.000000 23.751112 -100.000000
v 25.000000 14.250236 -100.000000
v 150.000000 -48.356056 -100.000000
v 250.000000 -26.979265 -100.000000
v -250.000000 0.000000 -125.000000
v -175.000000 45.006931 -125.000000
v 25.000000 14.218996 -125.000000
v 150.000000 -26.979265 -125.000000
v 250.000000 -48.356056 -125.000000
v -250.000000 3.187908 -175.000000
v -175.000000 34.448185 -175.000000
v 25.000000 -8.581595 -175.000000
v 150.000000 3.561090 -175.000000
v 250.000000 -48.356056 -175.000000
v -250.000000 0.000000 -250.000000
v -175.000000 0.000000 -250.000000
v 25.000000 0.000000 -250.000000
v 150.000000 0.000000 -250.000000
v 250.000000 0.000000 -250.000000
vt 0.000000 0.000000
vt 0.150000 0.000000
vt 0.550000 0.000000
vt 0.800000 0.000000
vt 1.000000 0.000000
vt 0.000000 0.100000
vt 0.150000 0.100000
vt 0.550000 0.100000
vt 0.800000 0.100000
vt 1.000000 0.100000
vt 0.000000 0.250000
vt 0.150000 0.250000
vt 0.550000 0.250000
vt 0.800000 0.250000
vt 1.000000 0.250000
vt 0.000000 0.400000
vt 0.150000 0.400000
vt 0.550000 0.400000
vt 0.800000 0.400000
vt 1.000000 0.400000
vt 0.000000 0.450000
vt 0.150000 0.450000
vt 0.550000 0.450000
vt 0.800000 0.450000
vt 1.000000 0.450000
vt 0.000000 0.600000
vt 0.150000 0.600000
vt 0.550000 0.600000
vt 0.800000 0.600000
vt 1.000000 0.600000
vt 0.000000 0.700000
vt 0.150000 0.700000
vt 0.550000 0.700000
vt 0.800000 0.700000
vt 1.000000 0.700000
vt 0.000000 0.750000
vt 0.150000 0.750000
vt 0.550000 0.750000
vt 0.800000 0.750000
vt 1.000000 0.750000
vt 0.000000 0.850000
vt 0.150000 0.850000
vt 0.550000 0.850000
vt 0.800000 0.850000
vt 1.000000 0.850000
vt 0.000000 1.000000
vt 0.150000 1.000000
vt 0.550000 1.000000
vt 0.800000 1.000000
vt 1.000000 1.000000
vn -0.004306 0.994979 -0.099990
vn -0.004306 0.994979 -0.099990
vn -0.004306 0.994979 -0.099990
vn -0.004306 0.994979 -0.099990
vn -0.040573 0.996820 0.068587
vn -0.040573 0.996820 0.068587
vn -0.040573 0.996820 0.068587
vn -0.040573 0.996820 0.068587
vn 0.083111 0.996275 0.022976
vn 0.083111 0.996275 0.022976
vn 0.083111 0.996276 0.022976
vn 0.083111 0.996276 0.022976
vn -0.080190 0.996480 -0.024458
vn -0.080190 0.996480 -0.024458
vn -0.080190 0.996480 -0.024458
vn -0.080190 0.996480 -0.024458
vn -0.003747 0.865869 -0.500257
vn -0.003747 0.865869 -0.500257
vn -0.003747 0.865869 -0.500257
vn -0.003747 0.865869 -0.500257
vn -0.137276 0.919374 -0.368656
vn -0.137276 0.919374 -0.368656
vn -0.137276 0.919374 -0.368656
vn -0.137276 0.919374 -0.368656
vn 0.252895 0.894168 -0.369470
vn 0.252895 0.894168 -0.369470
vn 0.252895 0.894168 -0.369470
vn 0.252895 0.894168 -0.369470
vn -0.126186 0.842573 -0.523592
vn -0.126186 0.842573 -0.523592
vn -0.126186 0.842573 -0.523592
vn -0.126186 0.842573 -0.523592
vn 0.100096 0.878826 0.466525
vn 0.100096 0.878826 0.466525
vn 0.100096 0.878826 0.466525
vn 0.100096 0.878826 0.466525
vn -0.067775 0.997523 0.018823
vn -0.067775 0.997523 0.018823
vn -0.067775 0.997523 0.018823
vn -0.067775 0.997523 0.018823
vn 0.063462 0.982570 0.174726
vn 0.063462 0.982570 0.174726
vn 0.063462 0.982570 0.174726
vn 0.063462 0.982570 0.174726
vn -0.112507 0.799619 0.589874
vn -0.112507 0.799619 0.589874
vn -0.112507 0.799619 0.589875
vn -0.112507 0.799619 0.589875
vn 0.145613 0.985826 0.083326
vn 0.145613 0.985826 0.083326
vn 0.145613 0.985826 0.083326
vn 0.145613 0.985826 0.083326
vn 0.140734 0.974394 -0.175359
vn 0.140734 0.974394 -0.175359
vn 0.140734 0.974394 -0.175359
vn 0.140734 0.974394 -0.175359
vn -0.301440 0.898448 -0.319259
vn -0.301440 0.898448 -0.319259
vn -0.301440 0.898448 -0.319259
vn -0.301440 0.898448 -0.319259
vn -0.144523 0.989418 -0.012845
vn -0.144523 0.989418 -0.012845
vn -0.144523 0.989418 -0.012845
vn -0.144523 0.989418 -0.012845
vn 0.033770 0.998859 0.033770
vn 0.033770 0.998859 0.033770
vn 0.033770 0.998859 0.033770
vn 0.033770 0.998859 0.033770
vn 0.156669 0.970219 0.184745
vn 0.156669 0.970219 0.184745
vn 0.156669 0.970219 0.184745
vn 0.156669 0.970219 0.184745
vn -0.112945 0.980536 -0.160599
vn -0.112945 0.980536 -0.160599
vn -0.112945 0.980536 -0.160599
vn -0.112945 0.980536 -0.160599
vn -0.280261 0.885677 -0.370176
vn -0.280261 0.885677 -0.370176
vn -0.280261 0.885677 -0.370176
vn -0.280261 0.885677 -0.370176
vn -0.149316 0.943003 0.297407
vn -0.149316 0.943003 0.297407
vn -0.149316 0.943003 0.297407
vn -0.149316 0.943003 0.297407
vn 0.066942 0.821717 0.565951
vn 0.066942 0.821717 0.565951
vn 0.066942 0.821717 0.565951
vn 0.066942 0.821717 0.565951
vn 0.296597 0.882905 0.364017
vn 0.296597 0.882905 0.364017
vn 0.296597 0.882905 0.364017
vn 0.296597 0.882905 0.364017
vn -0.319037 0.915026 -0.246867
vn -0.319037 0.915026 -0.246867
vn -0.319037 0.915026 -0.246867
vn -0.319037 0.915026 -0.246867
vn -0.388681 0.847932 0.360470
vn -0.388681 0.847932 0.360470
vn -0.388681 0.847932 0.360470
vn -0.388681 0.847932 0.360470
vn 0.092319 0.916568 0.389076
vn 0.092319 0.916568 0.389076
vn 0.092319 0.916568 0.389076
vn 0.092319 0.916568 0.389076
vn 0.356748 0.859182 0.366794
vn 0.356748 0.859182 0.366794
vn 0.356748 0.859182 0.366794
vn 0.356748 0.859182 0.366794
vn 0.000000 1.000000 0.000000
vn 0.000000 1.000000 0.000000
vn 0.000000 1.000000 0.000000
vn 0.000000 1.000000 0.000000
vn -0.452253 0.889477 -0.065562
vn -0.452253 0.889477 -0.065562
vn -0.452253 0.889477 -0.065562
vn -0.452253 0.889477 -0.065562
vn 0.172438 0.934399 -0.311709
vn 0.172438 0.934399 -0.311709
vn 0.172438 0.934399 -0.311709
vn 0.172438 0.934399 -0.311709
vn 0.115106 0.990391 0.076654
vn 0.115106 0.990391 0.076654
vn 0.115106 0.990391 0.076654
vn 0.115106 0.990391 0.076654
vn 0.330761 0.902561 0.275645
vn 0.330761 0.902561 0.275645
vn 0.330761 0.902561 0.275645
vn 0.330761 0.902561 0.275645
vn -0.198129 0.950707 -0.238539
vn -0.198129 0.950707 -0.238539
vn -0.198129 0.950707 -0.238539
vn -0.198129 0.950707 -0.238539
vn 0.105419 0.979964 -0.168989
vn 0.105419 0.979964 -0.168989
vn 0.105419 0.979964 -0.168989
vn 0.105419 0.979964 -0.168989
vn -0.048486 0.998265 0.033412
vn -0.048486 0.998265 0.033412
vn -0.048486 0.998265 0.033412
vn -0.048486 0.998265 0.033412
vn 0.241377 0.929854 0.277685
vn 0.241377 0.929854 0.277685
vn 0.241377 0.929854 0.277685
vn 0.241377 0.929854 0.277685
s off
g ter6
usemtl initialShadingGroup
f 1/1/1 2/2/2 7/7/3 6/6/4
f 2/2/5 3/3/6 8/8/7 7/7/8
f 3/3/9 4/4/10 9/9/11 8/8/12
f 4/4/13 5/5/14 10/10/15 9/9/16
f 6/6/17 7/7/18 12/12/19 11/11/20
f 7/7/21 8/8/22 13/13/23 12/12/24
f 8/8/25 9/9/26 14/14/27 13/13/28
f 9/9/29 10/10/30 15/15/31 14/14/32
f 11/11/33 12/12/34 17/17/35 16/16/36
f 12/12/37 13/13/38 18/18/39 17/17/40
f 13/13/41 14/14/42 19/19/43 18/18/44
f 14/14/45 15/15/46 20/20/47 19/19/48
f 16/16/49 17/17/50 22/22/51 21/21/52
f 17/17/53 18/18/54 23/23/55 22/22/56
f 18/18/57 19/19/58 24/24/59 23/23/60
f 19/19/61 20/20/62 25/25/63 24/24/64
f 21/21/65 22/22/66 27/27/67 26/26/68
f 22/22/69 23/23/70 28/28/71 27/27/72
f 23/23/73 24/24/74 29/29/75 28/28/76
f 24/24/77 25/25/78 30/30/79 29/29/80
f 26/26/81 27/27/82 32/32/83 31/31/84
f 27/27/85 28/28/86 33/33/87 32/32/88
f 28/28/89 29/29/90 34/34/91 33/33/92
f 29/29/93 30/30/94 35/35/95 34/34/96
f 31/31/97 32/32/98 37/37/99 36/36/100
f 32/32/101 33/33/102 38/38/103 37/37/104
f 33/33/105 34/34/106 39/39/107 38/38/108
f 34/34/109 35/35/110 40/40/111 39/39/112
f 36/36/113 37/37/114 42/42/115 41/41/116
f 37/37/117 38/38/118 43/43/119 42/42/120
f 38/38/121 39/39/122 44/44/123 43/43/124
f 39/39/125 40/40/126 45/45/127 44/44/128
f 41/41/129 42/42/130 47/47/131 46/46/132
f 42/42/133 43/43/134 48/48/135 47/47/136
f 43/43/137 44/44/138 49/49/139 48/48/140
f 44/44/141 45/45/142 50/50/143 49/49/144
