# This file uses centimeters as units for non-parametric coordinates.

mtllib ter7.mtl
g default
v -250.000000 0.000000 250.000000
v -150.000000 0.000000 250.000000
v -50.000000 0.000000 250.000000
v 75.000000 0.000000 250.000000
v 150.000000 0.000000 250.000000
v 200.000000 0.000000 250.000000
v 250.000000 0.000000 250.000000
v -250.000000 0.605061 150.000000
v -150.000000 44.405495 150.000000
v -50.000000 0.000000 150.000000
v 75.000000 29.782913 150.000000
v 150.000000 177.879410 150.000000
v 200.000000 20.617172 150.000000
v 250.000000 34.342064 150.000000
v -250.000000 6.357439 25.000000
v -150.000000 -67.546867 25.000000
v -50.000000 -36.191841 25.000000
v 75.000000 43.784130 25.000000
v 150.000000 56.146461 25.000000
v 200.000000 -14.002513 25.000000
v 250.000000 -31.464605 25.000000
v -250.046753 11.067896 -25.049614
v -150.000000 -64.602562 -25.000000
v -50.000000 -35.803318 -25.000000
v 75.000000 99.383423 -25.000000
v 150.000000 204.833389 -25.000000
v 200.000000 -18.507687 -25.000000
v 250.000000 -38.119705 -25.000000
v -256.995972 0.000000 -107.424942
v -150.000000 -0.870742 -100.000000
v -50.000000 -37.252655 -100.000000
v 75.000000 2.161568 -100.000000
v 150.000000 112.535545 -100.000000
v 200.000000 0.401396 -100.000000
v 250.000000 -0.971059 -100.000000
v -250.000000 9.823116 -175.000000
v -150.000000 25.190975 -175.000000
v -50.000000 -23.488058 -175.000000
v 75.000000 1.704475 -175.000000
v 150.000000 80.627342 -175.000000
v 200.000000 48.868164 -175.000000
v 250.000000 1.609753 -175.000000
v -250.000000 0.000000 -250.000000
v -150.000000 0.000000 -250.000000
v -50.000000 0.000000 -250.000000
v 75.000000 0.000000 -250.000000
v 150.000000 0.000000 -250.000000
v 200.000000 0.000000 -250.000000
v 250.000000 0.000000 -250.000000
vt 0.000000 0.000000
vt 0.200000 0.000000
vt 0.400000 0.000000
vt 0.650000 0.000000
vt 0.800000 0.000000
vt 0.900000 0.000000
vt 1.000000 0.000000
vt 0.000000 0.200000
vt 0.200000 0.200000
vt 0.400000 0.200000
vt 0.650000 0.200000
vt 0.800000 0.200000
vt 0.900000 0.200000
vt 1.000000 0.200000
vt 0.000000 0.450000
vt 0.200000 0.450000
vt 0.400000 0.450000
vt 0.650000 0.450000
vt 0.800000 0.450000
vt 0.900000 0.450000
vt 1.000000 0.450000
vt 0.000000 0.550000
vt 0.200000 0.550000
vt 0.400000 0.550000
vt 0.650000 0.550000
vt 0.800000 0.550000
vt 0.900000 0.550000
vt 1.000000 0.550000
vt 0.000000 0.700000
vt 0.200000 0.700000
vt 0.400000 0.700000
vt 0.650000 0.700000
vt 0.800000 0.700000
vt 0.900000 0.700000
vt 1.000000 0.700000
vt 0.000000 0.850000
vt 0.200000 0.850000
vt 0.400000 0.850000
vt 0.650000 0.850000
vt 0.800000 0.850000
vt 0.900000 0.850000
vt 1.000000 0.850000
vt 0.000000 1.000000
vt 0.200000 1.000000
vt 0.400000 1.000000
vt 0.650000 1.000000
vt 0.800000 1.000000
vt 0.900000 1.000000
vt 1.000000 1.000000
vn -0.208942 0.954065 0.214715
vn -0.208942 0.954065 0.214715
vn -0.208942 0.954065 0.214715
vn -0.208942 0.954065 0.214715
vn 0.211830 0.954073 0.211830
vn 0.211830 0.954073 0.211830
vn 0.211830 0.954073 0.211830
vn 0.211830 0.954073 0.211830
vn -0.117023 0.982298 0.146278
vn -0.117023 0.982298 0.146278
vn -0.117023 0.982298 0.146278
vn -0.117023 0.982298 0.146278
vn -0.565066 0.572329 0.594256
vn -0.565066 0.572329 0.594256
vn -0.565066 0.572329 0.594256
vn -0.565066 0.572329 0.594256
vn 0.744812 0.473611 0.470051
vn 0.744812 0.473611 0.470051
vn 0.744812 0.473611 0.470051
vn 0.744812 0.473611 0.470051
vn -0.131199 0.955921 0.262683
vn -0.131199 0.955921 0.262683
vn -0.131199 0.955921 0.262683
vn -0.131199 0.955921 0.262683
vn 0.137227 0.911690 -0.387286
vn 0.137227 0.911690 -0.387286
vn 0.137227 0.911690 -0.387286
vn 0.137227 0.911690 -0.387286
vn 0.056048 0.858945 -0.508991
vn 0.056048 0.858945 -0.508991
vn 0.056048 0.858945 -0.508991
vn 0.056048 0.858945 -0.508991
vn -0.400677 0.912631 -0.081007
vn -0.400677 0.912631 -0.081007
vn -0.400678 0.912631 -0.081007
vn -0.400678 0.912631 -0.081007
vn -0.700799 0.655120 -0.282309
vn -0.700799 0.655120 -0.282309
vn -0.700799 0.655120 -0.282309
vn -0.700799 0.655120 -0.282309
vn 0.887707 0.390353 -0.244131
vn 0.887707 0.390353 -0.244131
vn 0.887707 0.390353 -0.244131
vn 0.887707 0.390353 -0.244131
vn 0.034658 0.927373 -0.372531
vn 0.034658 0.927373 -0.372531
vn 0.034658 0.927373 -0.372531
vn 0.034658 0.927373 -0.372531
vn 0.597699 0.799405 0.060883
vn 0.597699 0.799405 0.060883
vn 0.597699 0.799405 0.060883
vn 0.597699 0.799405 0.060883
vn -0.287879 0.957135 0.031900
vn -0.287879 0.957135 0.031900
vn -0.287879 0.957135 0.031900
vn -0.287879 0.957135 0.031900
vn -0.600492 0.697719 0.390638
vn -0.600492 0.697719 0.390637
vn -0.600492 0.697719 0.390637
vn -0.600492 0.697719 0.390637
vn -0.326403 0.415580 0.848973
vn -0.326403 0.415580 0.848973
vn -0.326403 0.415580 0.848973
vn -0.326403 0.415580 0.848973
vn 0.858302 0.292447 0.421655
vn 0.858302 0.292447 0.421655
vn 0.858302 0.292447 0.421655
vn 0.858302 0.292447 0.421655
vn 0.345732 0.932544 -0.104074
vn 0.345732 0.932544 -0.104074
vn 0.345732 0.932544 -0.104074
vn 0.345732 0.932544 -0.104074
vn 0.322966 0.901692 0.287480
vn 0.322966 0.901692 0.287480
vn 0.322966 0.901692 0.287480
vn 0.322966 0.901692 0.287480
vn 0.034993 0.922986 0.383239
vn 0.034993 0.922986 0.383239
vn 0.034993 0.922986 0.383239
vn 0.034993 0.922986 0.383239
vn -0.503967 0.721598 -0.474673
vn -0.503967 0.721598 -0.474673
vn -0.503967 0.721598 -0.474673
vn -0.503967 0.721598 -0.474673
vn -0.666054 0.462915 -0.584877
vn -0.666054 0.462915 -0.584877
vn -0.666055 0.462915 -0.584877
vn -0.666054 0.462915 -0.584877
vn 0.949105 0.282914 -0.138418
vn 0.949105 0.282914 -0.138418
vn 0.949105 0.282914 -0.138418
vn 0.949105 0.282914 -0.138418
vn 0.192876 0.919135 0.343497
vn 0.192876 0.919135 0.343497
vn 0.192876 0.919135 0.343497
vn 0.192876 0.919135 0.343497
vn -0.076384 0.967803 0.239839
vn -0.076384 0.967803 0.239839
vn -0.076384 0.967803 0.239839
vn -0.076384 0.967803 0.239839
vn 0.380194 0.893934 0.237347
vn 0.380194 0.893934 0.237347
vn 0.380194 0.893934 0.237347
vn 0.380194 0.893934 0.237347
vn -0.249289 0.964640 0.085580
vn -0.249289 0.964640 0.085580
vn -0.249289 0.964640 0.085580
vn -0.249289 0.964640 0.085580
vn -0.776820 0.615557 -0.132818
vn -0.776820 0.615557 -0.132818
vn -0.776820 0.615557 -0.132818
vn -0.776820 0.615557 -0.132818
vn 0.819547 0.569552 0.062873
vn 0.819547 0.569552 0.062873
vn 0.819547 0.569552 0.062873
vn 0.819547 0.569552 0.062873
vn 0.418190 0.859927 0.292648
vn 0.418190 0.859927 0.292648
vn 0.418190 0.859927 0.292648
vn 0.418190 0.859927 0.292648
vn -0.074619 0.971106 -0.226683
vn -0.074619 0.971106 -0.226683
vn -0.074619 0.971106 -0.226683
vn -0.074619 0.971106 -0.226683
vn 0.236477 0.971575 -0.011030
vn 0.236477 0.971575 -0.011030
vn 0.236477 0.971575 -0.011030
vn 0.236477 0.971575 -0.011030
vn -0.099232 0.984735 0.143007
vn -0.099232 0.984735 0.143007
vn -0.099232 0.984735 0.143007
vn -0.099232 0.984735 0.143007
vn -0.418836 0.796035 -0.436927
vn -0.418836 0.796035 -0.436927
vn -0.418836 0.796035 -0.436927
vn -0.418836 0.796035 -0.436927
vn 0.233741 0.735979 -0.635374
vn 0.233741 0.735979 -0.635374
vn 0.233741 0.735979 -0.635373
vn 0.233741 0.735979 -0.635373
vn 0.408772 0.864973 -0.291080
vn 0.408772 0.864973 -0.291080
vn 0.408772 0.864973 -0.291080
vn 0.408772 0.864973 -0.291080
s off
g ter7
usemtl initialShadingGroup
f 1/1/1 2/2/2 9/9/3 8/8/4
f 2/2/5 3/3/6 10/10/7 9/9/8
f 3/3/9 4/4/10 11/11/11 10/10/12
f 4/4/13 5/5/14 12/12/15 11/11/16
f 5/5/17 6/6/18 13/13/19 12/12/20
f 6/6/21 7/7/22 14/14/23 13/13/24
f 8/8/25 9/9/26 16/16/27 15/15/28
f 9/9/29 10/10/30 17/17/31 16/16/32
f 10/10/33 11/11/34 18/18/35 17/17/36
f 11/11/37 12/12/38 19/19/39 18/18/40
f 12/12/41 13/13/42 20/20/43 19/19/44
f 13/13/45 14/14/46 21/21/47 20/20/48
f 15/15/49 16/16/50 23/23/51 22/22/52
f 16/16/53 17/17/54 24/24/55 23/23/56
f 17/17/57 18/18/58 25/25/59 24/24/60
f 18/18/61 19/19/62 26/26/63 25/25/64
f 19/19/65 20/20/66 27/27/67 26/26/68
f 20/20/69 21/21/70 28/28/71 27/27/72
f 22/22/73 23/23/74 30/30/75 29/29/76
f 23/23/77 24/24/78 31/31/79 30/30/80
f 24/24/81 25/25/82 32/32/83 31/31/84
f 25/25/85 26/26/86 33/33/87 32/32/88
f 26/26/89 27/27/90 34/34/91 33/33/92
f 27/27/93 28/28/94 35/35/95 34/34/96
f 29/29/97 30/30/98 37/37/99 36/36/100
f 30/30/101 31/31/102 38/38/103 37/37/104
f 31/31/105 32/32/106 39/39/107 38/38/108
f 32/32/109 33/33/110 40/40/111 39/39/112
f 33/33/113 34/34/114 41/41/115 40/40/116
f 34/34/117 35/35/118 42/42/119 41/41/120
f 36/36/121 37/37/122 44/44/123 43/43/124
f 37/37/125 38/38/126 45/45/127 44/44/128
f 38/38/129 39/39/130 46/46/131 45/45/132
f 39/39/133 40/40/134 47/47/135 46/46/136
f 40/40/137 41/41/138 48/48/139 47/47/140
f 41/41/141 42/42/142 49/49/143 48/48/144
