# This file uses centimeters as units for non-parametric coordinates.

mtllib Tower_buildIn.mtl
g default
v -13.557669 5.000000 -3.132480
v -14.709734 3.847934 -3.609682
v 13.557667 5.000000 -3.132480
v 14.709734 3.847934 -3.609682
v -11.982759 5.000000 -4.707390
v -12.459959 3.847934 -5.859457
v 11.982756 5.000000 -4.707390
v 12.459959 3.847934 -5.859457
v -13.557669 -5.000000 -3.132480
v -14.709734 -3.847933 -3.609682
v -11.982759 -5.000000 -4.707390
v -12.459959 -3.847933 -5.859457
v 11.982756 -5.000000 -4.707390
v 12.459959 -3.847933 -5.859457
v 13.557667 -5.000000 -3.132480
v 14.709734 -3.847933 -3.609682
v -11.559958 -1.453457 -5.859457
v -11.559958 1.453458 -5.859457
v 11.559958 1.453458 -5.859457
v 11.559958 -1.453457 -5.859457
v -11.559958 -1.453457 -4.259457
v -11.559958 1.453458 -4.259457
v 11.559958 1.453458 -4.259457
v 11.559958 -1.453457 -4.259457
v -14.709734 -3.847933 0.000000
v -13.557669 -5.000000 0.000000
v 13.557667 -5.000000 0.000000
v 14.709734 -3.847933 0.000000
v 14.709734 3.847934 0.000000
v 13.557667 5.000000 0.000000
v -13.557669 5.000000 0.000000
v -14.709734 3.847934 0.000000
vt 0.793504 0.621230
vt 0.793708 0.554158
vt 0.830625 0.554271
vt 0.830421 0.621342
vt 0.891327 0.025968
vt 0.892395 0.092353
vt 0.855856 0.092940
vt 0.854789 0.026556
vt 0.924485 0.922036
vt 0.830318 0.914259
vt 0.844234 0.713723
vt 0.938719 0.719603
vt 0.919377 0.964971
vt 0.832165 0.956572
vt 0.746682 0.914954
vt 0.763216 0.701438
vt 0.939856 0.676455
vt 0.852549 0.672586
vt 0.769907 0.960091
vt 0.791572 0.658962
vt 0.408372 0.939695
vt 0.408219 0.841811
vt 0.616909 0.841484
vt 0.617062 0.939369
vt 0.364191 0.939765
vt 0.364058 0.854821
vt 0.616774 0.755207
vt 0.408084 0.755533
vt 0.661243 0.939300
vt 0.661111 0.854356
vt 0.101304 0.044329
vt 0.127239 0.002161
vt 0.192119 0.074412
vt 0.146005 0.089155
vt 0.193795 0.786245
vt 0.147314 0.772661
vt 0.102465 0.817590
vt 0.013142 0.817628
vt 0.012003 0.044373
vt 0.795329 0.020708
vt 0.832246 0.020820
vt 0.900883 0.620336
vt 0.864345 0.620923
vt 0.297709 0.817492
vt 0.296869 0.043949
vt 0.386175 0.043786
vt 0.387032 0.817317
vt 0.252745 0.772657
vt 0.252331 0.088978
vt 0.206261 0.786371
vt 0.206130 0.074208
vt 0.271553 0.003089
vt 0.767028 0.683896
vt 0.680805 0.683169
vt 0.686582 -0.002601
vt 0.772805 -0.001874
vt 0.668599 0.735182
vt 0.440321 0.735332
vt 0.511329 0.708589
vt 0.597556 0.708532
vt 0.439835 -0.003855
vt 0.510879 0.022794
vt 0.668114 -0.004005
vt 0.597105 0.022738
vn -0.500000 0.707107 -0.500000
vn -0.500000 0.707107 -0.500000
vn -0.500000 0.707107 -0.500000
vn -0.500000 0.707107 -0.500000
vn 0.500000 0.707107 -0.500000
vn 0.499999 0.707107 -0.500000
vn 0.499999 0.707107 -0.500000
vn 0.499999 0.707107 -0.500000
vn 0.000000 0.707107 -0.707107
vn 0.000000 0.707107 -0.707107
vn 0.000000 0.707107 -0.707107
vn 0.000000 0.707107 -0.707107
vn -0.500000 -0.707107 -0.500000
vn -0.500000 -0.707107 -0.500000
vn -0.500000 -0.707107 -0.500000
vn -0.500000 -0.707107 -0.500000
vn 0.000000 -0.707107 -0.707107
vn 0.000000 -0.707107 -0.707107
vn 0.000000 -0.707107 -0.707107
vn 0.000000 -0.707107 -0.707107
vn 0.500000 -0.707107 -0.500000
vn 0.500000 -0.707107 -0.500000
vn 0.500000 -0.707107 -0.500000
vn 0.500000 -0.707107 -0.500000
vn 0.000000 0.000000 -1.000000
vn 0.000000 0.000000 -1.000000
vn 0.000000 0.000000 -1.000000
vn 0.000000 0.000000 -1.000000
vn -0.707107 0.000000 -0.707107
vn -0.707107 0.000000 -0.707107
vn -0.707107 0.000000 -0.707107
vn -0.707107 0.000000 -0.707107
vn 0.707107 0.000000 -0.707107
vn 0.707107 0.000000 -0.707107
vn 0.707107 0.000000 -0.707107
vn 0.707107 0.000000 -0.707107
vn 0.000000 0.000000 -1.000000
vn 0.000000 0.000000 -1.000000
vn 0.000000 0.000000 -1.000000
vn 0.000000 0.000000 -1.000000
vn 0.000000 0.000000 -1.000000
vn 0.000000 0.000000 -1.000000
vn 0.000000 0.000000 -1.000000
vn 0.000000 0.000000 -1.000000
vn 1.000000 0.000000 0.000000
vn 1.000000 0.000000 0.000000
vn 1.000000 0.000000 0.000000
vn 1.000000 0.000000 0.000000
vn 0.000000 -1.000000 0.000000
vn 0.000000 -1.000000 0.000000
vn 0.000000 -1.000000 0.000000
vn 0.000000 -1.000000 0.000000
vn -1.000000 0.000000 0.000000
vn -1.000000 0.000000 0.000000
vn -1.000000 0.000000 0.000000
vn -1.000000 0.000000 0.000000
vn 0.000000 1.000000 0.000000
vn 0.000000 1.000000 0.000000
vn 0.000000 1.000000 0.000000
vn 0.000000 1.000000 0.000000
vn -0.707107 -0.707107 0.000000
vn -0.707107 -0.707107 0.000000
vn -0.707107 -0.707107 0.000000
vn -0.707107 -0.707107 0.000000
vn 0.000000 -1.000000 0.000000
vn 0.000000 -1.000000 0.000000
vn 0.000000 -1.000000 0.000000
vn 0.000000 -1.000000 0.000000
vn 0.707107 -0.707107 0.000000
vn 0.707107 -0.707107 0.000000
vn 0.707107 -0.707107 0.000000
vn 0.707107 -0.707107 0.000000
vn 0.707106 0.707107 0.000000
vn 0.707106 0.707107 0.000000
vn 0.707106 0.707107 0.000000
vn 0.707106 0.707107 0.000000
vn 0.000000 1.000000 0.000000
vn 0.000000 1.000000 0.000000
vn 0.000000 1.000000 0.000000
vn 0.000000 1.000000 0.000000
vn -0.707107 0.707107 0.000000
vn -0.707107 0.707107 0.000000
vn -0.707107 0.707107 0.000000
vn -0.707107 0.707107 0.000000
vn 0.000000 1.000000 0.000000
vn 0.000000 1.000000 0.000000
vn 0.000000 -1.000000 0.000000
vn 0.000000 -1.000000 0.000000
vn -1.000000 0.000000 0.000000
vn -1.000000 0.000000 0.000000
vn -1.000000 0.000000 0.000000
vn -1.000000 0.000000 0.000000
vn 1.000000 0.000000 0.000000
vn 1.000000 0.000000 0.000000
vn 1.000000 0.000000 0.000000
vn 1.000000 0.000000 0.000000
s off
g pCube20
usemtl texturedFacets
f 2/10/1 1/14/2 5/19/3 6/15/4
f 3/31/5 4/32/6 8/33/7 7/34/8
f 6/35/9 5/36/10 7/34/11 8/33/12
f 9/18/13 10/11/14 12/16/15 11/20/16
f 11/48/17 12/50/18 14/51/19 13/49/20
f 13/49/21 14/51/22 16/52/23 15/45/24
f 21/53/25 22/54/26 23/55/27 24/56/28
f 2/10/29 6/15/30 12/16/31 10/11/32
f 8/27/33 4/23/34 16/22/35 14/28/36
s 1
f 12/57/37 6/58/38 18/59/39 17/60/40
f 6/58/38 8/61/41 19/62/42 18/59/39
f 8/61/41 14/63/43 20/64/44 19/62/42
f 14/63/43 12/57/37 17/60/40 20/64/44
s off
f 17/1/45 18/2/46 22/3/47 21/4/48
f 18/2/49 19/40/50 23/41/51 22/3/52
f 19/5/53 20/6/54 24/7/55 23/8/56
f 20/6/57 17/42/58 21/43/59 24/7/60
f 26/17/61 25/12/62 10/11/63 9/18/64
s 2
f 9/44/65 15/45/66 27/46/67 26/47/68
s off
f 28/21/69 27/25/70 15/26/71 16/22/72
f 30/29/73 29/24/74 4/23/75 3/30/76
s 3
f 1/37/77 3/31/78 7/34/79 5/36/80
s off
f 32/9/81 31/13/82 1/14/83 2/10/84
s 3
f 31/38/85 30/39/86 3/31/78 1/37/77
s 2
f 9/44/65 11/48/87 13/49/88 15/45/66
s off
f 32/9/89 2/10/90 10/11/91 25/12/92
f 28/21/93 16/22/94 4/23/95 29/24/96
